<?xml version="1.0" encoding="UTF-8"?>
<svg width="120px" height="120px" viewBox="0 0 120 120" version="1.1" xmlns="http://www.w3.org/2000/svg" xmlns:xlink="http://www.w3.org/1999/xlink">
    <!-- Generator: Sketch 53.2 (72643) - https://sketchapp.com -->
    <title>amenities-icon</title>
    <desc>Created with Sketch.</desc>
    <g id="Home-Page" stroke="none" stroke-width="1" fill="none" fill-rule="evenodd">
        <g id="HomePage-SearchBar" transform="translate(-431.000000, -906.000000)">
            <g id="amenities-icon" transform="translate(431.000000, 906.000000)">
                <circle id="Oval" fill="#FFFFFF" cx="60" cy="60" r="60"></circle>
                <g transform="translate(19.000000, 34.000000)" fill-rule="nonzero">
                    <path d="M46.009,6.404 L45.993,8.371 L46.009,9.216 L46.428,10.229 L47.766,10.223 L69.375,9.998 C69.375,9.998 71.598,10.551 71.516,8.319 C71.434,6.087 71.446,2.572 71.446,2.572 C71.446,2.572 72.703,0.957 67.697,1.199 L57.84,0.84 C57.84,0.84 45.983,2.16 45.992,4.851 C46.001,7.542 46.008,6.403 46.008,6.403" id="Path_49" fill="#B4B8BF"></path>
                    <path d="M72.374,25.455 C72.374,25.555 72.384,25.701 72.392,25.868 C72.5,27.928 72.603,34.551 72.531,36.548 C72.448,38.713 72.406,39.804 72.406,39.804 L77.717,39.804 C77.717,39.804 77.931,36.541 77.917,35.295 C77.903,34.049 77.717,30.735 77.697,29.495 C77.677,28.255 77.636,22.204 77.636,22.204 L77.092,18.953 C77.092,18.953 72.225,20.701 72.377,25.459" id="Path_50" fill="#FFB958"></path>
                    <path d="M16.146,45.295 L16.946,48.147 L25.76,48.354 L37.6,48.454 L49.571,49.018 L65.554,48.697 L77.454,48.697 C78.3500002,48.56784 79.0565354,47.8686096 79.195,46.974 C79.53,45.363 80.188,42.074 79.195,41.051 C78.7699234,40.5613697 78.2717062,40.1403981 77.718,39.803 L45.033,39.788 C45.033,39.788 15.354,37.688 16.147,45.293" id="Path_51" fill="#FFB958"></path>
                    <polygon id="Path_52" fill="#FFB958" points="19.787 48.3 19.806 49.324 21.857 50.174 22.72 50.174 23.948 49.324 23.879 48.455"></polygon>
                    <polygon id="Path_53" fill="#FFB958" points="69.871 48.454 70.035 49.654 71.447 50.614 73.547 50.614 74.236 49.654 74.296 48.697"></polygon>
                    <path d="M16.962,39.634 C16.962,39.634 21.856,39.409 30.433,39.534 C39.01,39.659 50.628,39.799 50.628,39.799 L72.367,39.799 C72.367,39.799 72.413,39.238 72.502,38.511 C72.591,37.784 72.416,33.827 72.416,33.827 C72.416,33.827 49.332,34.085 48.362,34.057 C47.392,34.029 36.117,33.457 34.062,33.473 C32.007,33.489 15.798,35.073 16.962,39.638" id="Path_54" fill="#F5BACC"></path>
                    <path d="M55.262,31.68 C55.03,32.299 56.311,33.992 56.311,33.992 L65.558,33.892 L72.417,33.816 L72.481,28.735 C72.481,28.735 56.231,29.1 55.262,31.676" id="Path_55" fill="#ED7A98"></path>
                    <path d="M0.483,12.617 L0.483,45.295 L2.016,45.295 L2.016,46.324 L2.836,46.953 L3.884,46.779 L4.642,45.295 L16.142,45.295 C16.0108388,44.2333448 15.94405,43.1647247 15.942,42.095 C16.1758191,41.1399179 16.5037565,40.2103713 16.921,39.32 L16.595,37.134 L17.542,35.447 L19.786,33.992 L25.094,33.467 L30.234,33.514 L30.234,18.287 L30.034,10.229 L30.034,0.721 L16.595,0.553 C16.595,0.553 0.172,0.363 0.481,7.731 C0.79,15.099 0.481,12.617 0.481,12.617" id="Path_56" fill="#CFE8E1"></path>
                    <polygon id="Path_57" fill="#ABABAC" points="0.479 37.134 16.595 37.134 16.595 38.609 16.915 39.322 15.924 40.378 15.924 42.403 16.124 44.88 16.143 45.296 0.483 45.296"></polygon>
                    <polygon id="Path_58" fill="#ABABAC" points="1.942 45.295 2.016 46.325 3.484 46.891 4.641 45.759"></polygon>
                    <polygon id="Path_59" fill="#FFB958" points="8.745 39.245 7.595 39.804 7.595 41.214 9.684 41.214 10.195 40.234"></polygon>
                    <path d="M30.038,1.11 C26.513,1.11 22.859,1.03 18.989,0.946 C12.773,0.81 6.345,0.669 0.546,0.89 C0.331601867,0.890835999 0.150990725,0.730053288 0.127,0.517 C0.125128149,0.412594686 0.164884081,0.311736835 0.237492065,0.236689823 C0.310100049,0.161642811 0.409589823,0.118577452 0.514,0.117 C6.34,-0.102 12.778,0.036 19.006,0.174 C22.871,0.257 26.522,0.337 30.037,0.337 C30.2512865,0.337 30.425,0.510713517 30.425,0.725 C30.425,0.939286483 30.2512865,1.113 30.037,1.113" id="Path_60" fill="#757575"></path>
                    <path d="M0.483,45.683 C0.271492015,45.6834135 0.0962188702,45.5190949 0.083,45.308 C-0.035,42.123 0.009,38.219 0.039,35.634 C0.049,34.747 0.056,33.999 0.056,33.466 C0.056,28.46 0.124,23.788 0.199,18.84 L0.251,15.28 C0.251,14.022 0.221,12.644 0.191,11.264 C0.161,9.884 0.132,8.499 0.132,7.232 C0.132,6.513 0.132,5.877 0.138,5.232 C0.146,3.932 0.151,2.613 0.132,0.5 C0.133052261,0.395151979 0.175853727,0.295048058 0.250928706,0.221849954 C0.326003684,0.148651851 0.427158938,0.108397969 0.532,0.11 L0.532,0.11 C0.746813415,0.109828083 0.923407529,0.279358433 0.932,0.494 C0.953,2.609 0.947,3.937 0.939,5.236 C0.939,5.876 0.932,6.509 0.932,7.228 C0.932,8.489 0.962,9.868 0.993,11.244 C1.024,12.62 1.052,14.012 1.052,15.281 L1,18.846 C0.926,23.792 0.857,28.463 0.857,33.462 C0.857,33.998 0.848,34.748 0.838,35.637 C0.81,38.214 0.766,42.108 0.886,45.276 C0.886055048,45.4934464 0.71239134,45.6711075 0.495,45.676 L0.483,45.683 Z" id="Path_61" fill="#757575"></path>
                    <path d="M16.146,45.683 L0.483,45.683 C0.268713517,45.683 0.095,45.5092865 0.095,45.295 C0.095,45.0807135 0.268713517,44.907 0.483,44.907 L16.146,44.907 C16.3602865,44.907 16.534,45.0807135 16.534,45.295 C16.534,45.5092865 16.3602865,45.683 16.146,45.683" id="Path_62" fill="#757575"></path>
                    <path d="M51.43,49.415 C48.366,49.415 45.271,49.306 42.278,49.2 C39.886,49.114 37.414,49.026 34.991,49 C33.267,49 31.536,48.933 29.859,48.869 C28.182,48.805 26.468,48.738 24.759,48.738 L23.659,48.738 C21.312,48.738 18.868,48.712 16.912,48.538 C16.104,48.462 15.462,43.66 15.54,42.085 C15.67,39.417 16.564,38.985 18.648,38.985 L19.909,38.994 C20.151,38.994 20.409,38.994 20.67,38.985 C25.26,38.847 30.147,39.027 34.77,39.196 L36.093,39.243 C41.336,39.416 47.254,39.416 52.473,39.416 C54.631,39.416 56.666,39.437 58.657,39.457 C60.563,39.475 62.431,39.493 64.331,39.493 C66.525,39.493 68.431,39.469 70.318,39.416 C72.718,39.331 78.18,39.641 78.229,39.645 C79.929,39.966 79.977,42.745 80.002,44.088 C80.021,45.61 79.702,47.614 78.741,48.546 C78.4042645,48.890615 77.9428198,49.0849265 77.461,49.085 C68.488,49.085 63.225,49.17 55.485,49.345 C54.204,49.394 52.877,49.416 51.433,49.416 L51.43,49.415 Z M24.757,47.957 C26.486,47.957 28.219,48.023 29.892,48.09 C31.565,48.157 33.283,48.221 34.992,48.221 C37.432,48.25 39.908,48.34 42.303,48.421 C45.288,48.528 48.377,48.637 51.426,48.637 C52.86,48.637 54.175,48.613 55.452,48.565 C63.205,48.39 68.472,48.305 77.452,48.305 C77.7199065,48.3029459 77.9751892,48.1908529 78.158,47.995 C78.894,47.282 79.206,45.568 79.187,44.183 C79.171,43.23 79.123,40.6 78.117,40.407 L78.117,40.407 C78.046,40.407 72.728,40.107 70.337,40.188 C68.437,40.241 66.524,40.266 64.322,40.266 C62.416,40.266 60.549,40.247 58.64,40.228 C56.651,40.209 54.618,40.188 52.464,40.188 C47.24,40.188 41.313,40.188 36.054,40.015 L34.729,39.967 C30.121,39.798 25.255,39.618 20.687,39.755 C20.412,39.763 20.151,39.766 19.9,39.766 L18.639,39.757 C16.976,39.757 16.445,39.864 16.339,42.114 C16.3274335,44.0350485 16.6176356,45.9459957 17.199,47.777 C19.083,47.932 21.41,47.954 23.652,47.954 L24.757,47.957 Z" id="Path_63" fill="#757575"></path>
                    <path d="M2.985,47.36 C2.62270534,47.3732728 2.26887701,47.2485394 1.995,47.011 C1.54164882,46.5245681 1.398778,45.8252734 1.625,45.2 C1.68617848,44.9906307 1.90089428,44.8661131 2.113,44.917 C2.21620009,44.9379623 2.30644681,44.9999721 2.36302044,45.0887927 C2.41959407,45.1776133 2.43763456,45.2856144 2.413,45.388 C2.27391513,45.7416569 2.32722595,46.1420552 2.554,46.447 C2.85205792,46.6152141 3.21208916,46.6326409 3.525,46.494 C4.052,46.342 4.071,46.216 4.174,45.615 C4.196,45.495 4.218,45.362 4.25,45.215 C4.2714733,45.1120833 4.33358804,45.0221953 4.42226141,44.9657154 C4.51093478,44.9092356 4.61865519,44.8909484 4.721,44.915 C4.82437324,44.9317256 4.91651489,44.9897331 4.97628776,45.0757155 C5.03606064,45.161698 5.05833459,45.2682757 5.038,45.371 C5.012,45.504 4.99,45.628 4.97,45.741 C4.98000607,46.4665505 4.4692272,47.0952338 3.757,47.234 C3.50757123,47.3134629 3.2477583,47.3555856 2.986,47.359" id="Path_64" fill="#757575"></path>
                    <path d="M22.395,50.58 C22.218,50.58 22.03,50.572 21.834,50.561 L21.64,50.55 C20.749,50.5 20.046,50.46 19.647,49.961 C19.3508592,49.4888315 19.2871218,48.9070895 19.474,48.382 C19.4978094,48.2785308 19.5617783,48.1887726 19.651813,48.1325009 C19.7418478,48.0762292 19.8505607,48.0580613 19.954,48.082 C20.0564022,48.1013377 20.1468058,48.1608543 20.2050451,48.2472739 C20.2632844,48.3336935 20.2845146,48.439827 20.264,48.542 C20.1508514,48.8487453 20.1590782,49.1871158 20.287,49.488 C20.461,49.706 21.031,49.738 21.687,49.775 L21.887,49.787 C22.487,49.819 23.218,49.828 23.45,49.563 C23.598,49.399 23.61,49.052 23.491,48.538 C23.4686496,48.4356174 23.4886635,48.3285476 23.546488,48.2411515 C23.6043125,48.1537555 23.69503,48.0934659 23.798,48.074 C24.012631,48.0287062 24.2246617,48.1612254 24.278,48.374 C24.4946567,48.9407638 24.4147887,49.5782085 24.065,50.074 C23.6057554,50.4727246 22.9983179,50.6567745 22.395,50.58" id="Path_65" fill="#757575"></path>
                    <path d="M72.406,51 C71.147,51 69.581,51 69.467,48.886 C69.4632269,48.7809828 69.5015622,48.6788098 69.573484,48.6021933 C69.6454059,48.5255768 69.7449542,48.4808661 69.85,48.478 C69.9560369,48.4659142 70.0622817,48.4988564 70.1428812,48.5688108 C70.2234808,48.6387651 70.2710451,48.7393175 70.274,48.846 C70.339,50.107 70.911,50.226 72.406,50.226 C73.854,50.226 73.857,50.198 73.896,48.688 C73.8955697,48.581305 73.9401324,48.4793707 74.0187442,48.4072305 C74.0973561,48.3350904 74.2027344,48.2994275 74.309,48.309 C74.4141071,48.3095182 74.5146266,48.3521183 74.5880991,48.4272819 C74.6615715,48.5024455 74.7018734,48.6039083 74.7,48.709 C74.658,50.34 74.555,51.002 72.406,51.002" id="Path_66" fill="#757575"></path>
                    <path d="M77.717,40.191 C77.704031,40.1922705 77.690969,40.1922705 77.678,40.191 C77.5732497,40.1836323 77.4758656,40.1344399 77.4077747,40.0544989 C77.3396839,39.974558 77.30661,39.8705884 77.316,39.766 C77.5739943,36.7719903 77.5850316,33.7618211 77.349,30.766 C77.249,29.328 77.266,27.759 77.276,26.24 C77.285,24.896 77.293,23.506 77.228,22.223 C77.217,21.954 77.228,21.667 77.235,21.374 C77.262,20.513 77.288,19.623 76.725,19.138 C76.195,18.684 75.125,18.563 73.565,18.784 C73.113,18.847 72.135,19.662 72.819,25.855 C73.0868691,30.5065878 73.0831962,35.16984 72.808,39.821 C72.8028196,39.9651567 72.7211261,40.0955992 72.5936926,40.1631913 C72.4662591,40.2307833 72.3124458,40.2252559 72.1901926,40.1486913 C72.0679395,40.0721266 71.9958196,39.9361567 72.001,39.792 C72.2744586,35.1741887 72.279467,30.5443921 72.016,25.926 C71.656,22.672 71.416,18.299 73.451,18.016 C75.291,17.762 76.533,17.939 77.262,18.559 C77.9475952,19.3330771 78.2353454,20.3813888 78.041,21.397 C78.033,21.669 78.024,21.937 78.041,22.186 C78.108,23.486 78.096,24.891 78.086,26.244 C78.078,27.744 78.066,29.304 78.159,30.719 C78.3956029,33.757236 78.3835628,36.809725 78.123,39.846 C78.0967328,40.0463968 77.9251037,40.1957142 77.723,40.194" id="Path_67" fill="#757575"></path>
                    <path d="M16.962,40.018 C16.7937344,40.0195013 16.6420699,39.9167994 16.581,39.76 C15.9478554,38.454383 16.0309706,36.9148628 16.801,35.685 C18.486,33.359 23.133,33.285 26.21,33.236 L26.944,33.224 C32.1054841,32.97569 37.2771166,33.0317873 42.432,33.392 C48.97,33.863 55.994,33.714 62.789,33.57 C65.983,33.503 69.282,33.433 72.417,33.433 C72.5601372,33.4257263 72.6956267,33.4979513 72.769378,33.6208412 C72.8431292,33.7437311 72.8431292,33.8972689 72.769378,34.0201588 C72.6956267,34.1430487 72.5601372,34.2152737 72.417,34.208 C69.293,34.208 65.996,34.279 62.807,34.347 C55.993,34.491 48.946,34.64 42.365,34.166 C37.2394117,33.8076782 32.0971534,33.7519147 26.965,33.999 L26.217,34.012 C23.308,34.058 18.905,34.127 17.458,36.128 C16.8461406,37.1583116 16.8016587,38.4294382 17.34,39.5 C17.3747344,39.5991499 17.367998,39.70812 17.3213161,39.8022368 C17.2746341,39.8963536 17.1919553,39.9676562 17.092,40 C17.0487703,40.0142311 17.0035107,40.021324 16.958,40.021" id="Path_68" fill="#757575"></path>
                    <path d="M56.306,34.463 C56.2177042,34.4633751 56.1315682,34.4357135 56.06,34.384 C55.1654926,33.4727043 54.7209013,32.2118083 54.846,30.941 C54.8180071,30.1084022 55.213126,29.3181644 55.896,28.841 C57.1626174,28.3511427 58.5347901,28.1988323 59.878,28.399 C60.278,28.418 60.654,28.437 60.989,28.437 C62.541,28.437 64.47,28.418 66.446,28.396 C68.516,28.376 70.635,28.352 72.416,28.352 C72.6302865,28.352 72.804,28.5257135 72.804,28.74 C72.804,28.9542865 72.6302865,29.128 72.416,29.128 C70.637,29.128 68.521,29.152 66.454,29.172 C64.476,29.194 62.542,29.214 60.989,29.214 C60.639,29.214 60.249,29.194 59.836,29.172 C58.6475923,28.9974027 57.4345667,29.1137296 56.301,29.511 C55.8615062,29.8725353 55.6204905,30.4217838 55.652,30.99 C55.5439847,32.0023879 55.8711602,33.0129969 56.552,33.77 C56.6361634,33.8309422 56.6916993,33.9236914 56.7056799,34.0266572 C56.7196606,34.1296231 56.6908664,34.2338226 56.626,34.315 C56.547555,34.4108826 56.429879,34.4660433 56.306,34.465" id="Path_69" fill="#757575"></path>
                    <path d="M16.595,37.522 L0.784,37.522 C0.569713517,37.522 0.396,37.3482865 0.396,37.134 C0.396,36.9197135 0.569713517,36.746 0.784,36.746 L16.595,36.746 C16.8092865,36.746 16.983,36.9197135 16.983,37.134 C16.983,37.3482865 16.8092865,37.522 16.595,37.522" id="Path_70" fill="#757575"></path>
                    <path d="M30.371,33.482 C30.1541568,33.4853468 29.9753776,33.3128249 29.971,33.096 L29.971,28.296 C29.971,27.022 29.986,25.74 30,24.454 C30.035,21.308 30.075,18.054 29.881,14.9 C29.697,12.466 29.635,3.526 29.635,0.717 C29.635,0.493876961 29.815877,0.313 30.039,0.313 C30.262123,0.313 30.443,0.493876961 30.443,0.717 C30.443,3.517 30.501,12.432 30.687,14.849 C30.887,18.036 30.845,21.304 30.806,24.462 C30.792,25.743 30.776,27.022 30.776,28.295 L30.776,33.095 C30.7716224,33.3118249 30.5928432,33.4843468 30.376,33.481" id="Path_71" fill="#757575"></path>
                    <path d="M16.595,37.522 C16.3786888,37.5220974 16.2014893,37.3502139 16.195,37.134 C16.195,34.68 16.189,32.57 16.185,30.572 C16.185,28.777 16.177,27.078 16.177,25.305 C16.177,23.223 16.177,21.175 16.185,19.117 C16.185,17.038 16.195,14.948 16.195,12.8 L16.195,9.234 C16.195,6.895 16.195,4.494 16.195,0.554 C16.195,0.331153103 16.3756531,0.1505 16.5985,0.1505 C16.8213469,0.1505 17.002,0.331153103 17.002,0.554 C17.007,4.496 17.002,6.899 17.002,9.238 L17.002,12.802 C17.002,14.951 16.997,17.041 16.993,19.12 C16.993,21.179 16.983,23.22 16.983,25.307 C16.983,27.08 16.988,28.779 16.993,30.572 C16.993,32.572 17.002,34.681 17.002,37.136 C16.9960411,37.3526065 16.8186885,37.525082 16.602,37.525" id="Path_72" fill="#757575"></path>
                    <path d="M14.425,22.676 C14.2650829,22.6769559 14.1199651,22.5825703 14.056,22.436 C13.6386252,21.2848014 13.603557,20.0297079 13.956,18.857 C14.0163429,18.645865 14.2326428,18.5200579 14.446,18.572 C14.5485452,18.5930195 14.6382469,18.654581 14.6947376,18.7427066 C14.7512284,18.8308323 14.769715,18.9380445 14.746,19.04 C14.4326762,20.050271 14.4498418,21.1341575 14.795,22.134 C14.8357858,22.2296744 14.8357979,22.3378426 14.7950333,22.433526 C14.7542688,22.5292095 14.6762524,22.6041348 14.579,22.641 C14.5291589,22.6613725 14.4758439,22.6718997 14.422,22.672" id="Path_73" fill="#757575"></path>
                    <path d="M19.277,22.676 C19.2071076,22.676071 19.1383239,22.6585311 19.077,22.625 C18.9847681,22.5777255 18.9158474,22.4948299 18.8862048,22.3955178 C18.8565622,22.2962056 18.86877,22.1890948 18.92,22.099 C19.2286293,21.1048059 19.2160325,20.0386247 18.884,19.052 C18.8562178,18.9511318 18.8706832,18.8433007 18.9240674,18.7533209 C18.9774517,18.6633411 19.0651568,18.5989625 19.167,18.575 C19.3794767,18.515716 19.6006859,18.6356113 19.667,18.846 C19.901,19.673 20.197,21.499 19.629,22.476 C19.5558259,22.6002755 19.4222175,22.6764056 19.278,22.676" id="Path_74" fill="#757575"></path>
                    <path d="M8.852,41.899 L8.852,41.899 C8.1428287,41.9102483 7.50280854,41.4754346 7.252,40.812 C7.07264343,40.0892075 7.41766299,39.3385512 8.083,39.004 C8.28711896,38.9085812 8.50967957,38.8590853 8.735,38.859 C9.53113829,38.8485127 10.2516617,39.3289941 10.548,40.068 C10.634,40.354 10.711,41.092 9.648,41.709 C9.399791,41.8338314 9.12583194,41.8988967 8.848,41.899 M8.74,39.634 C8.64820341,39.6329591 8.55700502,39.6488934 8.471,39.681 C8.13785512,39.8474231 7.95633708,40.2153651 8.027,40.581 C8.16492856,40.914129 8.49249707,41.129071 8.853,41.123 C8.99486485,41.121362 9.13445635,41.0871484 9.261,41.023 C9.534,40.865 9.871,40.589 9.781,40.27 C9.58746198,39.8730629 9.1825793,39.6231257 8.741,39.628" id="Path_75" fill="#757575"></path>
                    <path d="M47.476,10.62 C46.604,10.62 45.602,10.43 45.59,8.945 C45.579,7.625 45.603,6.408 45.632,5.118 C45.654,3.948 45.68,2.718 45.68,1.295 C45.681615,1.13562208 45.7802909,0.993354425 45.929,0.936 C46.229,0.818 47.158,0.451 53.64,0.451 C58.346,0.451 64.165,0.646 67.714,0.811 L67.868,0.811 C68.018,0.811 68.204,0.803 68.404,0.798 C68.665,0.79 68.955,0.781 69.249,0.781 C69.949,0.781 71.595,0.781 71.674,1.812 C71.765,2.936 71.805,4.953 71.805,5.53 C71.805,5.66 71.821,5.865 71.842,6.115 C71.958,7.576 72.153,10.021 70.642,10.245 C68.9338546,10.4403588 67.2151771,10.5288644 65.496,10.51 C64.666,10.518 63.871,10.53 63.175,10.56 C61.175,10.616 59.193,10.596 57.17,10.578 C56.155,10.568 55.131,10.56 54.1,10.56 L49.121,10.56 C48.807,10.56 48.505,10.575 48.221,10.59 C47.956,10.603 47.706,10.616 47.473,10.616 M46.483,1.577 C46.483,2.886 46.456,4.035 46.433,5.13 C46.406,6.413 46.384,7.622 46.395,8.937 C46.402,9.711 46.669,9.837 47.473,9.837 C47.691,9.837 47.929,9.824 48.179,9.811 C48.479,9.796 48.792,9.78 49.123,9.78 L54.102,9.78 C55.138,9.78 56.162,9.788 57.18,9.798 C59.191,9.819 61.172,9.836 63.148,9.78 C63.848,9.75 64.648,9.741 65.486,9.733 C67.1683382,9.75017522 68.8501502,9.66434804 70.522,9.476 C71.288,9.361 71.105,7.044 71.037,6.176 C71.015,5.9 70.996,5.676 70.996,5.531 C70.996,4.963 70.959,2.977 70.869,1.872 C70.869,1.858 70.827,1.557 69.248,1.557 C68.963,1.557 68.68,1.566 68.429,1.572 C68.216,1.58 68.029,1.586 67.866,1.586 L67.672,1.586 C64.133,1.422 58.332,1.228 53.639,1.228 C51.2478998,1.12900929 48.852749,1.24716024 46.483,1.581" id="Path_76" fill="#757575"></path>
                    <path d="M68.431,8.12 L49.576,8.12 C49.3617135,8.12 49.188,7.94628648 49.188,7.732 C49.188,7.51771352 49.3617135,7.344 49.576,7.344 L68.431,7.344 C68.6452865,7.344 68.819,7.51771352 68.819,7.732 C68.819,7.94628648 68.6452865,8.12 68.431,8.12" id="Path_77" fill="#757575"></path>
                    <path d="M59.484,15.966 C59.2680649,15.9661141 59.0910179,15.794821 59.084,15.579 C59.1151567,14.3154487 59.0566767,13.0512785 58.909,11.796 C58.8951458,11.6923088 58.923421,11.5873903 58.9875037,11.5047029 C59.0515864,11.4220155 59.1461316,11.3684561 59.25,11.356 C59.4657581,11.327484 59.6657717,11.4737495 59.704,11.688 C59.8606025,12.9787496 59.9231008,14.2791814 59.891,15.579 C59.8839371,15.7967758 59.7038718,15.9688381 59.486,15.966" id="Path_78" fill="#757575"></path>
                    <path d="M52.941,15.792 C52.8627348,15.7921974 52.7860482,15.7699896 52.72,15.728 C52.6308946,15.6746527 52.5676633,15.5869941 52.5451542,15.4856085 C52.522645,15.3842229 52.5428412,15.2780422 52.601,15.192 C53.037,14.549 53.443,14.012 53.809,13.527 C54.3040498,12.9199738 54.7393987,12.2666156 55.109,11.576 C55.2094346,11.3797836 55.4465174,11.2973775 55.647,11.389 C55.7426603,11.4299389 55.8173486,11.5083134 55.8536351,11.6058334 C55.8899216,11.7033535 55.8846318,11.8114873 55.839,11.905 C55.4479382,12.6407421 54.9857302,13.3363986 54.459,13.982 C54.1,14.458 53.7,14.982 53.276,15.613 C53.1991083,15.7244268 53.0723819,15.7909675 52.937,15.791" id="Path_79" fill="#757575"></path>
                    <path d="M65.558,15.792 C65.4392417,15.7925532 65.3261071,15.7414602 65.248,15.652 C64.8283125,15.1543071 64.4484716,14.6243354 64.112,14.067 C63.6663872,13.3183043 63.1288822,12.6282823 62.512,12.013 C62.4383443,11.9404024 62.3974598,11.84092 62.3987808,11.7375091 C62.4001017,11.6340981 62.443514,11.5356925 62.519,11.465 C62.6788851,11.312746 62.9301149,11.312746 63.09,11.465 C63.7471553,12.1230169 64.3201928,12.8599713 64.796,13.659 C65.113206,14.1836214 65.4702571,14.6830917 65.864,15.153 C65.9320833,15.2310187 65.9650794,15.3336064 65.9552442,15.4366866 C65.945409,15.5397668 65.8936086,15.6342638 65.812,15.698 C65.739248,15.7566903 65.6484728,15.7884793 65.555,15.788" id="Path_80" fill="#757575"></path>
                </g>
            </g>
        </g>
    </g>
</svg>