<svg xmlns="http://www.w3.org/2000/svg" width="120" height="120" viewBox="0 0 120 120">
  <defs>
    <style>
      .cls-1 {
        fill: #fff;
      }

      .cls-2 {
        fill: #fffffe;
      }

      .cls-10, .cls-11, .cls-12, .cls-13, .cls-2, .cls-3, .cls-4, .cls-5, .cls-6, .cls-7, .cls-8, .cls-9 {
        fill-rule: evenodd;
      }

      .cls-3 {
        fill: #acaca9;
      }

      .cls-4 {
        fill: #7a8088;
      }

      .cls-5 {
        fill: #b4b8b9;
      }

      .cls-6 {
        fill: #7a7b78;
      }

      .cls-7 {
        fill: #f0cd97;
      }

      .cls-8 {
        fill: #cce3d8;
      }

      .cls-9 {
        fill: #a5d3c4;
      }

      .cls-10 {
        fill: #ebbbc5;
      }

      .cls-11 {
        fill: #ecb86b;
      }

      .cls-12 {
        fill: #e78197;
      }

      .cls-13 {
        fill: #797a76;
      }
    </style>
  </defs>
  <g id="community-icon" transform="translate(-889 -837)">
    <circle id="Ellipse_2_copy_2" data-name="Ellipse 2 copy 2" class="cls-1" cx="60" cy="60" r="60" transform="translate(889 837)"/>
    <g id="community-icon-2" data-name="community-icon" transform="translate(902.827 857.704)">
      <g id="WEBSITE-ICONS-_1_" data-name="WEBSITE-ICONS-(1)" transform="translate(0.081 0.764)">
        <g id="Group-2577" transform="translate(0 0)">
          <g id="community-icon-3" data-name="community-icon">
            <path id="Fill-68" class="cls-2" d="M52,64.3c-9.233-.679-18.554.774-27.753-.271S5.363,58.644,1.646,50.165c-3.968-9.045.147-19.739,6.33-27.438C21.9,5.376,46.811-2.252,68.066,4.319,75,6.461,81.69,10.131,86.048,15.928c7.592,10.093,6.264,25.3-1.639,35.148S63.228,65.559,50.627,64.739" transform="translate(-0.081 0.719)"/>
            <path id="Fill-70" class="cls-3" d="M10.573,10.248a31.321,31.321,0,0,0,.967,3.587,11.458,11.458,0,0,0,.85,1.353l-.159-2.769a4.445,4.445,0,0,0,2.134-1.155A9.549,9.549,0,0,1,17.5,9.339,17.324,17.324,0,0,1,20.8,8.9c.962.012,2.847.178,3.363.681a4.569,4.569,0,0,1,.8,1.026.942.942,0,0,0,.364-.674,2.384,2.384,0,0,0-.613-2.286c-.842-.928-1.878-1.78-2.52-2.535a4.021,4.021,0,0,1-1.084-1.966A10.232,10.232,0,0,0,17.75,3.5a7.223,7.223,0,0,0-2.54,1.341c-.715.628-5.018,3.5-4.637,5.4" transform="translate(15.014 2.388)"/>
            <path id="Fill-72" class="cls-4" d="M24.411,3.841a4.4,4.4,0,0,1,.882.982c.232.444.42.808.286.994s-1.07.628-1.687,1.2a5.38,5.38,0,0,0-1.167,2.65c-.02.515.21,1.834.225,2.466s-.232,2.579.137,3.424.906,1.783,1.512,1.541l.606-.247L25.044,9.67a2.23,2.23,0,0,1,.894-1.087A17.055,17.055,0,0,1,30.7,7.909c2.293-.061,5.114-.059,6.151,1.2a6.158,6.158,0,0,1,1.482,2.779l.427-.327.564-.347s1.07-.237.938-1.023A6.764,6.764,0,0,0,38.943,7.6c-.808-1.223-1.048-1.431-.733-2.029a4.846,4.846,0,0,0-2.845-3.184A19.435,19.435,0,0,0,31.127,1.3c-1.04-.154-8.425.855-7.348,1.907s.632.63.632.63" transform="translate(32.568 -0.278)"/>
            <path id="Fill-74" class="cls-5" d="M5.771,15.794c-.264.723-1.621,5.512-1.194,7.292a17.947,17.947,0,0,0,.952,2.945,30.747,30.747,0,0,1,.41-4.54,2.892,2.892,0,0,1,2.252-1.9,24.118,24.118,0,0,0,3.814-1.175c.823-.337,1.683-1.333,3.717.791s1.939,2.212,2.623,2.444a3.2,3.2,0,0,0,1.968.127c.264-.2,1.118-.95.379-2.664S19.637,17.6,19.61,17.186s.232-2.281-.361-2.647-1.617-.474-3.072.291-1.382.6-1.382.6l-.435.11.051-.581.313-1.148.071-1.433s-.076-.09-.5.061a5.582,5.582,0,0,0-1.675,1c-.52.479-1.123.9-1.814,1.531l-.694.632s.071-.667.09-1.206.205-.784-.083-1.3-3.885,1.433-4.352,2.706" transform="translate(6.284 15.668)"/>
            <path id="Fill-76" class="cls-6" d="M14.835,17c-.173.735-.254,4.889,1.079,5.912s1.624,1.226,2.681,1.1a9.931,9.931,0,0,1,.249-2.5c.286-.923.527-2.173,3.783-2.652a99.311,99.311,0,0,1,10.242-.957,28.2,28.2,0,0,0,4.918-.422,2.726,2.726,0,0,0,2.161-1.875c.408-1.4.969-3.507.42-4s-1.219-.938-3.272-.466a37.2,37.2,0,0,1-6.823.879,50.593,50.593,0,0,0-5.5.471,11.231,11.231,0,0,0-2.874,1.47,5.039,5.039,0,0,1-1.353.855l-.828.2-1.043-.139S15.22,15.372,14.835,17" transform="translate(21.056 13.654)"/>
            <path id="Fill-78" class="cls-3" d="M27.007,16.334c-.12.845-.6,5.145.144,6.454a3.216,3.216,0,0,0,2.012,1.753V21.169s1.187-.742,1.734-1.082A8.6,8.6,0,0,1,33,19.2c.137.042-.007.249.2.584s.5.645,1.5.176,2.161-.957,2.161-.957l.252.613s.11.442.911.53a8.335,8.335,0,0,1,1.7.42l-.022,1.358a2.851,2.851,0,0,0,1.358-.757,3.706,3.706,0,0,0,.7-3.819c-.61-2.254-1.814-3.519-4.039-3.294s-4.559.584-5.67.015-4.806.584-5.043,2.264" transform="translate(38.369 17.943)"/>
            <path id="Fill-80" class="cls-7" d="M27.739,19.715c.186,1.768.466,4.9.652,5.448a2.824,2.824,0,0,0,2.5,1.912c1.822.305,3.978.662,5.167-.166s2.054-1.182,2.244-3.48a52.415,52.415,0,0,0-.037-5.895s.076-.056-.244-.208-.845-.09-1.287-.252-.845-.039-1.045-.53l-.2-.491s-2.308.8-3.162,1.021c-2.684.676-4.723,1.392-4.588,2.64" transform="translate(39.793 21.015)"/>
            <path id="Fill-82" class="cls-7" d="M28.475,20.472a3.671,3.671,0,0,0,.374,1.521,3.007,3.007,0,0,0,3.016,1.587c1.712-.337,1.966-.364,2.757-.962a5.493,5.493,0,0,0,1.272-2.308,6.732,6.732,0,0,0-.957.427,6.831,6.831,0,0,1-2.618.493,16.014,16.014,0,0,1-2.247-.252c-.466-.147-1.6-.508-1.6-.508" transform="translate(40.863 27.153)"/>
            <path id="Fill-84" class="cls-7" d="M23.695,6.877c-.01,1.253.1,6.623.2,7.8s.088,2.74,1.219,3.336,1.377.5,1.377.5a7.245,7.245,0,0,0,.672,1.446,5.62,5.62,0,0,0,2.552,1.57,5.736,5.736,0,0,0,2.6-.43,3.147,3.147,0,0,0,1.25-1.219,7.385,7.385,0,0,0,.359-1.314,4.371,4.371,0,0,0,1.643-.742c.457-.464,1.277-1.109,1.282-3.617s0-6.464,0-6.464a3.87,3.87,0,0,0-1.006-2.22,6.307,6.307,0,0,0-3.6-1.507c-1.324-.059-8.53,1.148-8.542,2.86" transform="translate(33.969 3.655)"/>
            <path id="Fill-86" class="cls-7" d="M16.512,18.473c-.208.962-.427,3.88-.044,4.8a13.9,13.9,0,0,0,.86,1.685h13.6a6.688,6.688,0,0,0,1.131-1.595,11.133,11.133,0,0,0,.755-4.422c-.029-1.35-.215-5.138-.215-5.138s-15.218.672-16.083,4.672" transform="translate(23.247 17.766)"/>
            <path id="Fill-88" class="cls-7" d="M11.235,9.428a18.951,18.951,0,0,0,.847,4.908c.711,1.717,2.166,3.482,3.695,3.878s4.459.921,5.556-.293,1.963-2.044,2.181-5.494.393-5.282.393-5.282l-.464-.882a8.093,8.093,0,0,0-2.071-.711C19.655,5.34,11.348,7.934,11.235,9.428" transform="translate(16.004 5.854)"/>
            <path id="Fill-90" class="cls-7" d="M5.1,20.348c-.076,1.223-.313,3.245.12,4.342s1.035,2.156,1.695,2.381,1.033.33,1.541-.5a11.2,11.2,0,0,1,1.377-2.137A3.639,3.639,0,0,1,11.992,24c.8.093.926.117.926.117a4.429,4.429,0,0,0,1.2,1.184c.8.54,1.853,1.092,2.366.86A2.7,2.7,0,0,0,17.8,24.77c.291-.681.342-.725.288-2.752s-.1-3.538-.1-3.538a2.993,2.993,0,0,1-1.348-.779,23.086,23.086,0,0,1-1.709-1.915,2.515,2.515,0,0,0-3.089-.918c-1.387.657-6.584,2.9-6.742,5.48" transform="translate(6.959 18.963)"/>
            <path id="Fill-92" class="cls-5" d="M5.246,17.861a4.09,4.09,0,0,0-.571,2.618,26.918,26.918,0,0,0,1.133,5.016,6.683,6.683,0,0,0,2.381,2.764,31.41,31.41,0,0,1,2.669,1.895,2.13,2.13,0,0,0,1.363.6,3.208,3.208,0,0,0,1.639-.364,10.949,10.949,0,0,0,1.99-2.337,19.206,19.206,0,0,1,1.465-2.188,7.063,7.063,0,0,0,1.448-2.1,10.53,10.53,0,0,0,.286-2.408,11.675,11.675,0,0,0-.493-2.437s-.076.061-.2.464a6.861,6.861,0,0,1-.388,1.211,2.3,2.3,0,0,1-.9.869,2.66,2.66,0,0,1-2.576-.979c-1.3-1.319-1.111-1.07-1.111-1.07l-.613.015-.84-.171-.65.11-.623.139-.366.327-.471.791-.422.442-.481.833-.339.432-.386.249a1.365,1.365,0,0,1-.886-.2c-.293-.264-.589-.342-.838-.777a8.705,8.705,0,0,1-.716-1.336,7.4,7.4,0,0,1-.278-1.6c.017-.281.017-.684.017-.684Z" transform="translate(6.499 23.62)"/>
            <path id="Fill-94" class="cls-7" d="M6.971,20.095a8.6,8.6,0,0,1,1.668-.276c.54.017,1.756.22,1.756.22a5.659,5.659,0,0,1-.52,1.263,1.862,1.862,0,0,1-1.192.772,1.784,1.784,0,0,1-1.333-.845,3.283,3.283,0,0,1-.379-1.133" transform="translate(9.854 26.442)"/>
            <path id="Fill-96" class="cls-7" d="M8.929,25.679a.9.9,0,0,0-.632-.244c-.357.032-.691.049-.852.325a4.828,4.828,0,0,0-.107,2.562c.252.95.654,1.284.864,1.275a1.737,1.737,0,0,0,.769-.408c.1-.12.308-.464.308-.464a5.654,5.654,0,0,0,.645.784c.2.154.608.422.916.2s.515-.4.515-.4a5.59,5.59,0,0,0,.791.288c.256.046.889-.039.974-.205a2.865,2.865,0,0,0,.591-1.558c-.032-.742-.342-2.537-.916-2.752s-.967-.239-1.07-.127-.618.623-.618.623l-.589-.371-.457-.154-.542.22-.3.415-.051.225Z" transform="translate(10.206 33.752)"/>
            <path id="Fill-98" class="cls-8" d="M12.1,38.843H47.76L47.714,18.4S12.041,17.745,12.1,21.168Z" transform="translate(17.25 24.324)"/>
            <path id="Fill-100" class="cls-2" d="M18.591,22.522a1.945,1.945,0,0,0-.547,1.734c.127,1.2.567,2.271,1.663,2.579a5.542,5.542,0,0,0,3.441,0,2.92,2.92,0,0,0,.955-3.849c-.984-1.585-2.085-1.946-2.723-1.939a4.822,4.822,0,0,0-2.789,1.475" transform="translate(25.799 28.214)"/>
            <path id="Fill-102" class="cls-6" d="M12.939,25.877s-.833-.147-1.084.154a9.163,9.163,0,0,0-.271,3.9c.276.8,2.593.535,2.593.535H49.6a.89.89,0,0,0,.53-.816c.037-.637-.02-1.2,0-2s.051-1.524-.322-1.619a7.049,7.049,0,0,0-1.136-.112L48.588,28,13,28.041Z" transform="translate(16.348 35.128)"/>
            <path id="Fill-104" class="cls-9" d="M7.813,26.038a1.03,1.03,0,0,0-1.023.9c-.1.894-.051,1.98.369,2.305a4.638,4.638,0,0,0,3.1.94,9.259,9.259,0,0,0,3.492-.422,7.542,7.542,0,0,0,1.46-.828l.361-.884-.247-.84-.94-.979a3.872,3.872,0,0,1-.181.908c-.129.283-.733.989-.95.911s-1.126-.359-1.126-.359l-.4.129a2.167,2.167,0,0,1-.535.315.663.663,0,0,1-.6-.283,9.684,9.684,0,0,1-.625-.918,3.527,3.527,0,0,1-.449.745,1.323,1.323,0,0,1-.65.259c-.144-.027-.593-.271-.669-.515s-.4-1.382-.4-1.382" transform="translate(9.527 35.411)"/>
            <path id="Fill-106" class="cls-4" d="M15.76,24.916s-2.151-.313-2.73-.308-2.781.205-3.35.789l.093.393.527,1.287.1,1.214.642.669.5.921-.12.842-.894.794-1.016.374,5,.354L14.6,32s-.12-.012-.225-.405a4.847,4.847,0,0,1-.071-1.626c.024-1.14.032-1.841.205-2a4.694,4.694,0,0,1,1.321-.227Z" transform="translate(13.518 33.349)"/>
            <path id="Fill-108" class="cls-10" d="M8.814,21.023S8.78,20.7,7.754,20.9A5.742,5.742,0,0,0,4.69,23.116c-.547.911-1.971,2.4-2.249,7.809a24.75,24.75,0,0,0,0,4.266A17.982,17.982,0,0,0,3.8,39.011c.466.813,2.93.574,2.93.574l6.923-.183,1.675-.96a7.141,7.141,0,0,1-1.377-.545,1.563,1.563,0,0,1-.85-1.143,2.937,2.937,0,0,1,.044-1.436c.217-.537.518-.891,1.023-.9a9.551,9.551,0,0,1,.083-1.441.978.978,0,0,1,1.082-.818,1.411,1.411,0,0,1,.869.474s.1-.684.64-.806a1.643,1.643,0,0,1,1.3.471l.618-.623.53-.032.545.159.562-.33a13.078,13.078,0,0,1,2.129-.547c.513,0,2.982.286,3.446.291l.208-.288V21.775a3.914,3.914,0,0,0-.83-.86,5.781,5.781,0,0,0-2.642-.672l-.615.117L21.5,29.294a38.519,38.519,0,0,0-5.475-1.866c-1.143-.09-3.006.9-4,1.324s-2.315,1.17-2.315,1.17Z" transform="translate(3.17 27.031)"/>
            <path id="Fill-110" class="cls-2" d="M5.014,21.434l.835,8.3s4.483-2.562,6.017-2.542S17.641,29.1,17.641,29.1l.43-8.747a4.933,4.933,0,0,1-.73,1.2c-.559.716-1.744,2.347-2.134,2.979a9.033,9.033,0,0,1-1.6,2.056,2.7,2.7,0,0,1-2.286.479,5.753,5.753,0,0,1-1.741-1,12.91,12.91,0,0,0-1.922-1.407A5.627,5.627,0,0,1,6,23.117c-.239-.359-.984-1.683-.984-1.683" transform="translate(7.032 27.22)"/>
            <path id="Fill-112" class="cls-11" d="M16.766,9.848s-4.225.481-5.853,2.545-1.78,2.063-2.127,3.853c0,0,.308-.044.327.466a18.168,18.168,0,0,1-.64,2.684,4.654,4.654,0,0,0,1.651-.491c.994-.469,2.6-1.172,3.1-.694s.725,1.116.664,2.982a6.744,6.744,0,0,1,1.072,1.831,3.041,3.041,0,0,1-.073,2.364,1.672,1.672,0,0,1-1.958.3,44.061,44.061,0,0,1,.11,5.106,10.821,10.821,0,0,1,.462,2.012,13.288,13.288,0,0,1-.283,2.7l.376.068h1.094l1.2.252.906.662.474,1.018.061-6.535,11.226.063a3.906,3.906,0,0,1-.613-1.087,7.557,7.557,0,0,1-.364-2.435c0-.84-.022-1.592-.022-1.592s.217.122-.5.032A2.742,2.742,0,0,1,24.8,24.542a8.418,8.418,0,0,1-1.067-4.251c-.066-2.347.178-1.724.4-2.273s.447-1.023.447-1.023l.513-.5.794-.144.991.205,1.082.288,1.006.081.752-.33.632-.484,1.084-.691,1-.44a9.1,9.1,0,0,0-1.78-2.9c-1.228-1.3-2.286-2.232-2.286-2.232l-.828-.215h-.474l-.869,6.613s-1.5-1.817-1.936-2.23-1.458-1.248-1.458-1.248l-1.915,0a6.453,6.453,0,0,0-1.788,2.134,4.736,4.736,0,0,1-.723,1.353s-.635-.811-1.04-1.443a5.817,5.817,0,0,1-.432-2.286,21.273,21.273,0,0,1-.129-2.681" transform="translate(12.021 11.756)"/>
            <path id="Fill-114" class="cls-12" d="M28.669,9.049s-4.479-.2-6.256,1.57S20.4,13.562,20.5,14.432v.381s2.12-.017,3.353-.11a26.713,26.713,0,0,0,3.468-.5c1.206-.239,2.879-.7,3.57-.505s1.936.335,1.272,2.72-.835,3-1.639,3.426-3.3.515-3.663.667l-.361.154a41.182,41.182,0,0,1,.21,4.535c-.059,1.929-.159,4.076-.938,5.365s-.94,1.284-.94,1.284l10.791-.029V37.53l.523-.4,1.326-.716,1.079-.264.728-.007-.354-.745-.278-1.055-.256-1.785L38.3,31.5l-.706-.22L36.9,30.8l-.72-.969a6.22,6.22,0,0,1-.493-2.425c.007-1.353.049-4.4.991-5.668s1.575-1.88,1.875-1.863A4.845,4.845,0,0,1,40,20.558a5.854,5.854,0,0,0,1.846.735,12.769,12.769,0,0,0,3.67-.068,13.017,13.017,0,0,1,2.342-.11l-.149-4.987-.5-3.2-.52-1.389-1.04-1.3L44.3,9.577l-1.939-.313-1.214-.09a4.527,4.527,0,0,1-.947,1.4,11.15,11.15,0,0,1-1.643.742s-.249,1.954-1.231,2.359a11.653,11.653,0,0,1-2.208.6l-1.741-.308-1.2-.742-.589-.755-.405-1.15-.867-.232-.864-.452-.469-.623Z" transform="translate(29.338 10.904)"/>
            <path id="Fill-116" class="cls-9" d="M31.057,20.666l-.779-.545-.791.171a5.332,5.332,0,0,0-2.513,1.128l-.291.217V34.173s.918-.166,1.194.19.3.83.366,2.1a5.1,5.1,0,0,1-.369,2.21l15.428.8,3.052-.19.183-.488a12.791,12.791,0,0,0,.6-5.844c-.42-3.289-1.172-8.273-3.187-10.181l-1.028-1.148-1.35-.957-.994-.383-1.109-.176-.513-.044-.564.5-.154.989-.772,1.133-1.341.928-1.968.381-1.209-.322-.8-.462-.6-.557-.269-.606-.23-.632Z" transform="translate(38.28 26.796)"/>
            <path id="Fill-118" class="cls-11" d="M30.759,24.769a8.809,8.809,0,0,1,1.621-.19c.764,0,1.888-.063,2.059.19a5.073,5.073,0,0,1-.068,2.982c-.43.645-1.2,1.548-1.753,1.59a1.825,1.825,0,0,1-1.411-.818,4.159,4.159,0,0,1-.642-1.587,11.551,11.551,0,0,1,.2-2.166" transform="translate(43.849 33.296)"/>
            <path id="Fill-120" class="cls-13" d="M47.866,39.1a.178.178,0,0,1-.181-.178c0-4.19-.042-18.493-.046-20.266H12.389c0,3.284,0,10.186,0,15.319v4.947a.18.18,0,0,1-.183.178.178.178,0,0,1-.181-.178l0-4.947c0-5.228,0-12.3,0-15.5a.18.18,0,0,1,.056-.129.172.172,0,0,1,.125-.054H47.82a.184.184,0,0,1,.181.183c0,.156.044,15.993.044,20.444a.178.178,0,0,1-.178.178" transform="translate(17.143 24.246)"/>
            <path id="Fill-122" class="cls-13" d="M47.866,27.027H12.206a.178.178,0,0,1-.181-.178.18.18,0,0,1,.181-.181h35.66a.18.18,0,0,1,.178.181.178.178,0,0,1-.178.178" transform="translate(17.143 36.32)"/>
            <path id="Fill-124" class="cls-13" d="M48.757,30.707H13.1c-.794,0-1.231,0-1.475-.388a4.984,4.984,0,0,1-.215-2.215c0-2.129,0-2.305,1.69-2.305a.181.181,0,1,1,0,.361c-.737,0-1.043.007-1.175.19a4.238,4.238,0,0,0-.154,1.753,5.42,5.42,0,0,0,.161,2.024c.132.21.435.22,1.167.22h35.66a.179.179,0,0,1,0,.359" transform="translate(16.251 35.066)"/>
            <path id="Fill-126" class="cls-13" d="M26.809,30.707a.178.178,0,0,1-.181-.178.18.18,0,0,1,.181-.181h.012c.73,0,1.033-.01,1.16-.212a5.2,5.2,0,0,0,.161-1.983V28.1a4.176,4.176,0,0,0-.156-1.753c-.127-.181-.43-.19-1.162-.19h-.015a.181.181,0,1,1,0-.361c.794,0,1.228,0,1.473.342.222.313.222.83.222,1.963v.049a4.754,4.754,0,0,1-.217,2.173c-.239.381-.674.381-1.465.381Z" transform="translate(38.2 35.066)"/>
            <path id="Fill-128" class="cls-13" d="M21.546,21.329a2.927,2.927,0,0,0-1.341.352l-.015,0a2.931,2.931,0,0,0-1.839,3.182c.093.505.584,2.159,3.092,2.232a2.548,2.548,0,0,0,2.72-1.394,3.51,3.51,0,0,0-.926-3.683A2.5,2.5,0,0,0,21.546,21.329Zm.125,6.139c-.076,0-.159,0-.242,0A3.3,3.3,0,0,1,18,24.931a3.29,3.29,0,0,1,2.051-3.575,2.891,2.891,0,0,1,3.436.4A3.9,3.9,0,0,1,24.5,25.844,2.774,2.774,0,0,1,21.671,27.468Z" transform="translate(25.686 28.108)"/>
            <path id="Fill-130" class="cls-13" d="M18.185,22.76a2.751,2.751,0,0,1-2.212-1.194,8.076,8.076,0,0,1-.784-7.311.186.186,0,0,1,.244-.083.18.18,0,0,1,.081.242,7.789,7.789,0,0,0,.745,6.933,2.332,2.332,0,0,0,2.3,1.023l.015-.2c.22-3.116.3-4.281,3.695-4.886a49.285,49.285,0,0,1,7.243-.847c.608-.037,1.236-.059,1.841-.083a40.624,40.624,0,0,0,4.418-.332c.349-.051.694-.073,1.028-.1,1.629-.1,3.035-.193,3.617-3.79a.174.174,0,0,1,.205-.149.178.178,0,0,1,.149.208c-.625,3.883-2.239,3.985-3.949,4.093-.327.02-.664.042-1,.09a40.352,40.352,0,0,1-4.459.335c-.6.024-1.228.049-1.834.085a49.435,49.435,0,0,0-7.2.838c-3.118.559-3.184,1.487-3.4,4.562l-.024.332a.187.187,0,0,1-.144.166,3.039,3.039,0,0,1-.584.061" transform="translate(20.92 15.151)"/>
            <path id="Fill-132" class="cls-13" d="M15.04,16.132a.12.12,0,0,1-.051-.01.178.178,0,0,1-.12-.225c.593-1.954,1.846-1.587,3.057-1.238a4.4,4.4,0,0,0,1.976.274,7.154,7.154,0,0,0,1.851-1.092,8.808,8.808,0,0,1,1.98-1.189,20.059,20.059,0,0,1,3.895-.613c.7-.032,1.4-.049,2.076-.063a29.176,29.176,0,0,0,5.126-.413c.32-.059.7-.151,1.1-.249,1.48-.361,3.321-.813,4.19.044.493.484.6,1.289.332,2.469a.177.177,0,0,1-.215.132.174.174,0,0,1-.134-.215c.232-1.028.156-1.744-.234-2.129-.728-.716-2.462-.291-3.853.051-.408.1-.791.193-1.121.249a29.264,29.264,0,0,1-5.184.422c-.676.015-1.375.029-2.059.063a19.746,19.746,0,0,0-3.81.593,8.6,8.6,0,0,0-1.883,1.14A7.222,7.222,0,0,1,20,15.28a.046.046,0,0,1-.02,0,4.669,4.669,0,0,1-2.149-.276c-1.233-.357-2.125-.618-2.613.994a.18.18,0,0,1-.173.129" transform="translate(21.232 13.535)"/>
            <path id="Fill-134" class="cls-13" d="M17.406,21.638a.178.178,0,0,1-.156-.09c-.088-.154-.178-.293-.264-.43-.513-.794-1-1.546-.681-4.725a.18.18,0,1,1,.359.032c-.3,3.057.127,3.726.625,4.5.09.142.183.286.274.449a.176.176,0,0,1-.068.244.188.188,0,0,1-.088.022" transform="translate(23.169 21.265)"/>
            <path id="Fill-136" class="cls-13" d="M22.371,25.243a.191.191,0,0,1-.134-.056.184.184,0,0,1,.012-.256c2.144-1.956,1.9-5.809,1.7-8.9-.049-.774-.1-1.5-.1-2.12a.182.182,0,0,1,.183-.181.178.178,0,0,1,.178.181c0,.6.046,1.328.1,2.1.188,3.006.447,7.123-1.822,9.194a.174.174,0,0,1-.122.046" transform="translate(31.801 17.659)"/>
            <path id="Fill-138" class="cls-13" d="M18.172,16.055c0,.083,0,.154-.01.217-.007.154-.012.222.049.281a.607.607,0,0,0,.015-.078.6.6,0,0,1,.107-.286.284.284,0,0,1-.01-.044c-.051-.059-.071-.078-.09-.078a.181.181,0,0,1-.061-.012m.784,1.094a.157.157,0,0,1-.059-.012s0,0-.01,0a.18.18,0,0,1-.2-.073c-.044-.063-.078-.122-.11-.173l-.049.007v0a.183.183,0,0,1-.254.105c-.457-.227-.491-.388-.471-.757,0-.061.007-.137.007-.222a.18.18,0,0,1,.181-.178.2.2,0,0,1,.063.012c.015-.188.232-.278.662-.278a.18.18,0,0,1,.181.178c0,.024,0,.046,0,.071a.087.087,0,0,1,.022.01.178.178,0,0,1,.1.159v.034a.736.736,0,0,1,.4.53.578.578,0,0,1-.381.562.187.187,0,0,1-.081.02" transform="translate(25.469 20.34)"/>
            <path id="Fill-140" class="cls-13" d="M22.207,16.787a.121.121,0,0,1-.042,0,1.736,1.736,0,0,1-.43-.149c-.063.007-.137.02-.22.032a.179.179,0,0,1-.212-.178,1.73,1.73,0,0,1,.029-.308.406.406,0,0,1,.088-.354.476.476,0,0,0,0-.061.179.179,0,0,1,.178-.178.187.187,0,0,1,.132.056,1,1,0,0,1,.2-.024.336.336,0,0,1,.149-.032.289.289,0,0,1,.176.061,2.192,2.192,0,0,1,.244.068.181.181,0,0,1,.1.264l-.042.068a.043.043,0,0,0,.012.01.179.179,0,0,1,.034.21.812.812,0,0,1-.178.239c-.044.042-.044.042-.044.1a.19.19,0,0,1-.066.142.187.187,0,0,1-.112.037" transform="translate(30.522 20.339)"/>
            <path id="Fill-142" class="cls-13" d="M23.956,22.267a4.379,4.379,0,0,1-.457-.027c-2.132-.244-2.012-1.726-1.9-3.16a4.867,4.867,0,0,0-.2-2.447,1.918,1.918,0,0,0-1.656-1.172A2.4,2.4,0,0,0,17.6,16.68a.18.18,0,0,1-.308-.186A2.763,2.763,0,0,1,19.765,15.1a2.271,2.271,0,0,1,1.963,1.38,5.164,5.164,0,0,1,.234,2.63c-.115,1.436-.208,2.567,1.578,2.774a1.842,1.842,0,0,0,1.482-.3c.5-.464.464-1.4.43-2.393a5.847,5.847,0,0,1,.249-2.432,3.038,3.038,0,0,1,2.217-1.98,1.958,1.958,0,0,1,1.89,1.143.181.181,0,0,1-.305.193,1.654,1.654,0,0,0-1.546-.979,2.7,2.7,0,0,0-1.919,1.758,5.519,5.519,0,0,0-.222,2.286c.034,1.079.068,2.1-.549,2.669a1.849,1.849,0,0,1-1.311.422" transform="translate(24.696 19.157)"/>
            <path id="Fill-144" class="cls-13" d="M5.584,26.123a.194.194,0,0,1-.142-.066C3.394,23.522,4.822,15.5,7.15,13.436c1.443-1.314,2.254-1.287,2.679-1.028.615.374.794,1.438.493,2.891.361-.278.711-.589,1.055-.894a7.568,7.568,0,0,1,3.438-2.1.181.181,0,0,1,.21.137,4,4,0,0,1-.22,2.051,8.256,8.256,0,0,0-.225.918,6.564,6.564,0,0,0,1.494-.6c1.17-.571,2.5-1.221,3.35-.3.464.383.432,1.187.405,1.9a4.438,4.438,0,0,0,.01.838,3.57,3.57,0,0,0,.513.9,3.936,3.936,0,0,1,.564,1.009c.647,1.875.022,2.591-.408,2.85-.928.562-2.571.022-3.746-1.223a9.524,9.524,0,0,1-.725-.86c-.606-.777-1.289-1.651-2.166-1.731a4.846,4.846,0,0,0-2.115.662,7.882,7.882,0,0,1-1.316.537c-.3.068-.6.132-.894.188C7.8,19.939,6.295,20.242,6,22.381a.181.181,0,0,1-.359-.051c.327-2.393,2.11-2.75,3.834-3.092.288-.061.586-.12.877-.188a7.953,7.953,0,0,0,1.25-.51,4.9,4.9,0,0,1,2.3-.7c1.026.093,1.766,1.035,2.413,1.866a8.995,8.995,0,0,0,.7.833c1.045,1.114,2.525,1.634,3.3,1.165.581-.349.674-1.211.254-2.422a3.645,3.645,0,0,0-.518-.918,3.975,3.975,0,0,1-.567-1.009l-.007-.029a5.134,5.134,0,0,1-.015-.923c.024-.628.054-1.346-.281-1.612a.134.134,0,0,0-.022-.017c-.667-.737-1.819-.176-2.933.369a4.953,4.953,0,0,1-1.863.65.177.177,0,0,1-.137-.059.189.189,0,0,1-.046-.142,7.352,7.352,0,0,1,.274-1.2,4.134,4.134,0,0,0,.244-1.695,7.693,7.693,0,0,0-3.087,1.973,17.119,17.119,0,0,1-1.48,1.209.184.184,0,0,1-.205,0,.178.178,0,0,1-.071-.193c.388-1.492.3-2.659-.222-2.974-.449-.276-1.25.076-2.252.987-2.181,1.941-3.582,9.756-1.663,12.122a.184.184,0,0,1-.142.3" transform="translate(6.23 15.554)"/>
            <path id="Fill-146" class="cls-13" d="M7.635,25.038a.856.856,0,0,1-.308-.063c-2.747-1.126-2.513-4.789-2.361-7.214.032-.462.059-.9.063-1.26a.178.178,0,0,1,.181-.176h0a.176.176,0,0,1,.176.181c0,.371-.032.813-.061,1.275-.156,2.462-.371,5.831,2.139,6.86.505.208.994-.645,1.468-1.47.44-.762.852-1.482,1.394-1.663a6.749,6.749,0,0,1,2.74,0,.179.179,0,0,1,.139.212.177.177,0,0,1-.212.139,6.426,6.426,0,0,0-2.554,0c-.41.137-.808.83-1.194,1.5-.476.83-.967,1.687-1.612,1.687" transform="translate(6.846 21.406)"/>
            <path id="Fill-148" class="cls-13" d="M11.547,24.217c-1.421,0-2.913-1.624-3.358-2.147a.181.181,0,0,1,.022-.254.176.176,0,0,1,.252.02c1.172,1.382,2.4,2.129,3.28,2.007a1.666,1.666,0,0,0,1.233-1.121,15.169,15.169,0,0,0,.283-4.943c-.022-.54-.042-1.05-.042-1.465a.179.179,0,1,1,.359,0c0,.408.022.913.044,1.448a15.371,15.371,0,0,1-.31,5.1A2.014,2.014,0,0,1,11.793,24.2a1.7,1.7,0,0,1-.247.017" transform="translate(11.55 21.13)"/>
            <path id="Fill-150" class="cls-13" d="M12.688,31.076a2.693,2.693,0,0,1-.845-.144A7.148,7.148,0,0,1,9.892,29.7a10.433,10.433,0,0,0-1.328-.945,5.6,5.6,0,0,1-2.6-2.73c-.564-1.368-2.276-5.978-.777-8.159a.181.181,0,0,1,.3.205c-1.394,2.032.266,6.491.811,7.809a5.186,5.186,0,0,0,2.452,2.562,11.055,11.055,0,0,1,1.372.972,6.828,6.828,0,0,0,1.841,1.177,2.237,2.237,0,0,0,.72.125c1.49,0,2.5-1.651,3.4-3.133.252-.415.491-.806.728-1.136.164-.225.335-.435.515-.659,1.165-1.441,2.366-2.928,1.089-6.882a.183.183,0,0,1,.117-.23.176.176,0,0,1,.225.117c1.341,4.142.017,5.778-1.148,7.221-.181.22-.349.427-.505.642-.23.32-.464.706-.713,1.114-.911,1.5-2.017,3.306-3.7,3.306" transform="translate(6.412 23.514)"/>
            <path id="Fill-152" class="cls-13" d="M6.627,17.814a.785.785,0,0,1-.349-.093l-.012-.007c-.464-.291-.469-.54-.388-.694a.594.594,0,0,1,.354-.261c-.007-.034-.017-.078-.024-.107a.731.731,0,0,1-.027-.176.181.181,0,0,1,.252-.164,1.159,1.159,0,0,1,.205.107.181.181,0,0,1,.093.049.207.207,0,0,1,.034.046,1.216,1.216,0,0,1,.164.176,1.651,1.651,0,0,1,.462.1.18.18,0,0,1,.015.33,2.4,2.4,0,0,0-.276.156.543.543,0,0,1-.222.452.468.468,0,0,1-.278.085" transform="translate(8.221 21.365)"/>
            <path id="Fill-154" class="cls-13" d="M9.16,17.814a.776.776,0,0,1-.347-.093L8.8,17.714c-.466-.291-.469-.54-.391-.694a.6.6,0,0,1,.354-.261c0-.034-.017-.078-.022-.107a.735.735,0,0,1-.029-.176.182.182,0,0,1,.254-.164,1.225,1.225,0,0,1,.2.107.172.172,0,0,1,.093.049.152.152,0,0,1,.034.046,1.394,1.394,0,0,1,.166.176,1.651,1.651,0,0,1,.462.1.178.178,0,0,1,.112.159.181.181,0,0,1-.1.171,2.041,2.041,0,0,0-.276.156.549.549,0,0,1-.222.452.477.477,0,0,1-.281.085" transform="translate(11.874 21.365)"/>
            <path id="Fill-156" class="cls-13" d="M7.293,20.3c.322,1.05.811,1.665,1.363,1.7.591.039,1.214-.589,1.729-1.729a6.928,6.928,0,0,0-3.092.027m1.414,2.066-.076,0c-.757-.051-1.377-.818-1.744-2.164a.182.182,0,0,1,.024-.147.18.18,0,0,1,.125-.078l.105-.017a7.281,7.281,0,0,1,3.538.02.2.2,0,0,1,.117.1.2.2,0,0,1,0,.151c-.584,1.385-1.321,2.142-2.093,2.142" transform="translate(9.726 26.339)"/>
            <path id="Fill-158" class="cls-13" d="M20.6,14.906a.178.178,0,0,1-.181-.178,5.006,5.006,0,0,1,1.575-3.79,9.117,9.117,0,0,1,6.784-1.951.182.182,0,0,1,.169.19.179.179,0,0,1-.19.171A8.875,8.875,0,0,0,22.241,11.2a4.651,4.651,0,0,0-1.465,3.529.176.176,0,0,1-.178.178" transform="translate(29.244 10.788)"/>
            <path id="Fill-160" class="cls-13" d="M26.37,5.647a2.786,2.786,0,0,0-2.43,1.009A3.271,3.271,0,0,0,23.7,9.483a2.861,2.861,0,0,0,1.714,1.834,3.073,3.073,0,0,0,3.3-.5A3.6,3.6,0,0,0,29.854,7.44a2.019,2.019,0,0,0-1.245-1.426A.182.182,0,0,1,28.546,6a7.274,7.274,0,0,0-2.176-.357m.364,6.3a3.992,3.992,0,0,1-1.443-.286A3.205,3.205,0,0,1,23.359,9.6a3.62,3.62,0,0,1,.278-3.145c.96-1.438,3.165-1.3,4.588-.926a.219.219,0,0,1,.056,0A2.431,2.431,0,0,1,30.2,7.349a3.934,3.934,0,0,1-1.25,3.739,3.3,3.3,0,0,1-2.22.857" transform="translate(33.152 5.481)"/>
            <path id="Fill-162" class="cls-13" d="M26.917,6.752A6.172,6.172,0,0,1,26.07,6.7a.176.176,0,0,1-.151-.2.179.179,0,0,1,.2-.154,12.307,12.307,0,0,0,2.886-.12.178.178,0,0,1,.2.154.18.18,0,0,1-.151.205,16.736,16.736,0,0,1-2.142.168" transform="translate(37.174 6.837)"/>
            <path id="Fill-164" class="cls-13" d="M27.479,7.207v.022a7.218,7.218,0,0,0,.3,2.662.119.119,0,0,0,.007.017,2,2,0,0,0,1.661,1.407,3.139,3.139,0,0,0,2.8-1.443,2.49,2.49,0,0,0,.1-2.9,3.461,3.461,0,0,0-3.331-1.394,1.9,1.9,0,0,0-1.536,1.631m2.232,4.483a2.6,2.6,0,0,1-.308-.017,2.345,2.345,0,0,1-1.954-1.631,8.044,8.044,0,0,1-.33-2.816V7.188a.139.139,0,0,1,0-.032,2.264,2.264,0,0,1,1.819-1.932,3.845,3.845,0,0,1,3.7,1.543,2.822,2.822,0,0,1-.1,3.3,3.532,3.532,0,0,1-2.833,1.621" transform="translate(38.908 5.311)"/>
            <path id="Fill-166" class="cls-13" d="M31.683,17c-.5,0-1.048-.022-1.639-.063-.339-.024-.713-.032-1.109-.042-1.819-.039-4.085-.085-4.82-1.875-.413-.957-.5-7.7-.5-9.455a.181.181,0,0,1,.361,0c0,2.869.137,8.545.466,9.316.65,1.57,2.694,1.617,4.5,1.656.4.007.779.015,1.128.039,2.9.21,4.694-.107,5.639-1,1.111-1.045,1.1-2.913,1.072-5.282-.01-1.092-.022-2.332.076-3.663a.184.184,0,0,1,.193-.166.181.181,0,0,1,.168.193c-.1,1.316-.085,2.547-.076,3.634.022,2.457.042,4.4-1.184,5.546-.84.789-2.188,1.16-4.276,1.16" transform="translate(33.862 5.629)"/>
            <path id="Fill-168" class="cls-13" d="M35.617,21.348h0a.18.18,0,0,1-.173-.188c.139-2.83-.051-6.811-.808-8.864-.95-2.535-2.7-2.679-4.923-2.862-.2-.015-.408-.034-.618-.051a.18.18,0,0,1,.034-.359c.208.02.413.037.613.054,2.161.176,4.2.342,5.231,3.092.891,2.413.94,6.8.83,9.008a.178.178,0,0,1-.181.171" transform="translate(41.516 10.875)"/>
            <path id="Fill-170" class="cls-13" d="M28.922,13.165a4.126,4.126,0,0,1-4.127-3,.178.178,0,0,1,.134-.217.181.181,0,0,1,.217.134A3.791,3.791,0,0,0,29.071,12.8a3.042,3.042,0,0,0,3.092-2.581.182.182,0,1,1,.359.056,3.368,3.368,0,0,1-3.438,2.884c-.054,0-.11,0-.161,0" transform="translate(35.55 12.198)"/>
            <path id="Fill-172" class="cls-13" d="M25.244,7.143a.7.7,0,0,1,.081.105c.037-.23,0-.352-.129-.447a2.238,2.238,0,0,1,.049.322v.02m.181.645a.626.626,0,0,1-.576-.342,1.62,1.62,0,0,0-.105-.142H24.7a.18.18,0,0,1-.181-.181V6.4a.183.183,0,0,1,.076-.147.178.178,0,0,1,.164-.024.691.691,0,0,1,.076.027.166.166,0,0,1,.154-.029.182.182,0,0,1,.129.132c.5.208.713.471.481,1.294a.188.188,0,0,1-.176.132" transform="translate(35.162 6.837)"/>
            <path id="Fill-174" class="cls-13" d="M28.325,7.6a.167.167,0,0,1-.125-.054.439.439,0,0,1-.122-.518c0-.037-.007-.076-.01-.122,0-.027,0-.061,0-.1a.178.178,0,0,1-.017-.2c0-.039-.012-.081-.02-.127a.183.183,0,0,1,.073-.176.191.191,0,0,1,.188-.017c.386.2.6.337.645.537a.2.2,0,0,1,.029.049c.066.144.037.322-.112.62a.177.177,0,0,1-.112.093.18.18,0,0,1-.142-.017c-.037-.022-.071-.042-.1-.061-.017.015-.037.032-.056.046a.177.177,0,0,1-.115.039" transform="translate(40.215 6.909)"/>
            <path id="Fill-176" class="cls-13" d="M28.113,10.834h-.071a2.554,2.554,0,0,1-2.476-1.619.182.182,0,0,1,.347-.107,2.194,2.194,0,0,0,2.137,1.365A2.7,2.7,0,0,0,30.7,8.656a.181.181,0,0,1,.339.125,3.044,3.044,0,0,1-2.93,2.054" transform="translate(36.657 10.177)"/>
            <path id="Fill-178" class="cls-13" d="M37.069,8.978h-.007a.18.18,0,0,1-.173-.186A3.886,3.886,0,0,0,35.75,5.738a7.13,7.13,0,0,0-5.409-1.455c-.354.032-.816.046-1.3.063-1.436.046-3.407.112-4.273.635l-.012,0c-.855.427-.825.955-.772,1.91.012.244.027.52.027.818a.18.18,0,1,1-.359,0c0-.288-.015-.545-.029-.8-.051-.957-.1-1.717.965-2.252.95-.564,2.886-.628,4.442-.681.481-.017.938-.032,1.284-.059A7.453,7.453,0,0,1,36,5.476,4.213,4.213,0,0,1,37.247,8.8a.18.18,0,0,1-.178.176" transform="translate(33.833 3.48)"/>
            <path id="Fill-180" class="cls-13" d="M24.644,17.945a1.12,1.12,0,0,1-.623-.2c-.9-.586-1.4-2.354-1.153-4.024a5.5,5.5,0,0,0-.093-1.785,5.191,5.191,0,0,1-.024-2.2A6.274,6.274,0,0,1,23.869,7.5l.012-.015a4.256,4.256,0,0,1,.8-.53,2.951,2.951,0,0,0,.84-.593c.11-.6-.569-1.267-1.228-1.9a4.506,4.506,0,0,1-1.175-1.48.106.106,0,0,0,0-.012,1.51,1.51,0,0,1,.259-1.492C24.394.395,27.5,1.02,29.547,1.432c.5.1.93.188,1.226.227,4.313.347,6.842,1.8,7.729,4.454a.182.182,0,0,1-.037.178c-.359.41.22,1.143.833,1.919a4.825,4.825,0,0,1,1.258,2.278,1.225,1.225,0,0,1-.9,1.424,2.477,2.477,0,0,0-1.067.823.181.181,0,1,1-.3-.208,2.778,2.778,0,0,1,1.206-.94c.486-.23.755-.359.694-1.07a4.616,4.616,0,0,0-1.179-2.085c-.679-.857-1.319-1.668-.889-2.3-.86-2.442-3.28-3.79-7.392-4.117-.317-.044-.752-.132-1.258-.232-1.853-.376-4.957-1-5.841-.063a1.145,1.145,0,0,0-.173,1.145A4.361,4.361,0,0,0,24.543,4.2c.733.713,1.487,1.451,1.328,2.249l-.007.022c-.085.254-.437.474-1.006.8a4.438,4.438,0,0,0-.716.466,5.963,5.963,0,0,0-1.043,2.1,4.817,4.817,0,0,0,.032,2.049,5.841,5.841,0,0,1,.093,1.9c-.2,1.321.125,3.1.991,3.668a.738.738,0,0,0,.85,0,.176.176,0,0,1,.247.056.179.179,0,0,1-.054.249,1.139,1.139,0,0,1-.615.188" transform="translate(32.45 -0.874)"/>
            <path id="Fill-182" class="cls-13" d="M18.66,18.038a6.755,6.755,0,0,1-5.04-1.951c-1.668-1.709-2.54-4.545-2.452-7.98a.177.177,0,0,1,.183-.178.183.183,0,0,1,.176.188c-.083,3.338.752,6.081,2.349,7.719a6.408,6.408,0,0,0,4.784,1.841A3.976,3.976,0,0,0,22.7,15.134a16.987,16.987,0,0,0,.862-5.47,22.856,22.856,0,0,1,.337-3.4.175.175,0,0,1,.212-.139.18.18,0,0,1,.139.212,23.316,23.316,0,0,0-.33,3.343,17.244,17.244,0,0,1-.889,5.59,4.3,4.3,0,0,1-4.374,2.764" transform="translate(15.898 6.695)"/>
            <path id="Fill-184" class="cls-13" d="M11.343,9.3a.178.178,0,0,1-.168-.12.182.182,0,0,1,.11-.232A9.044,9.044,0,0,0,13.954,7.38a7.141,7.141,0,0,1,3.978-1.795c2.557-.3,5.585-.386,6.31,1.67a.181.181,0,0,1-.11.23.176.176,0,0,1-.227-.11c-.65-1.834-3.695-1.695-5.932-1.433a6.875,6.875,0,0,0-3.8,1.724A9.259,9.259,0,0,1,11.4,9.289a.148.148,0,0,1-.059.01" transform="translate(15.901 5.685)"/>
            <path id="Fill-186" class="cls-13" d="M12.55,15.481a.185.185,0,0,1-.129-.051A8.075,8.075,0,0,1,10.835,11.9a12.072,12.072,0,0,1-.288-4.588,2.849,2.849,0,0,1,1.377-2.283.181.181,0,0,1,.166,0,.189.189,0,0,1,.093.137c.078.691.259,1.094.537,1.2.547.21,1.548-.679,2.278-1.326.32-.283.62-.547.869-.723A9.187,9.187,0,0,1,21.28,3.083a.183.183,0,0,1,.171.188c-.046.857.926,1.766,1.956,2.723C24.921,7.4,26.638,9,25.263,10.832a.18.18,0,0,1-.288-.217c1.177-1.57-.344-2.987-1.812-4.354-1.031-.96-2.007-1.871-2.073-2.83a8.83,8.83,0,0,0-5.023,1.189c-.225.159-.515.418-.825.691-.891.789-1.9,1.678-2.647,1.392-.376-.142-.613-.542-.733-1.223a2.933,2.933,0,0,0-.96,1.89c-.454,2.652.613,6.642,1.775,7.8a.181.181,0,0,1,0,.256.183.183,0,0,1-.127.051" transform="translate(14.854 2.276)"/>
            <path id="Fill-188" class="cls-13" d="M15.638,11.393a2.177,2.177,0,0,1-.838-.176A4.883,4.883,0,0,1,13.214,9.51a.2.2,0,0,1,.105-.19c.132-.061.234.044.344.154a.175.175,0,0,1,.046.181A4.967,4.967,0,0,0,14.9,10.868a.119.119,0,0,1,.027.01c1.209.505,1.963-.244,2.784-1.612a.181.181,0,0,1,.31.186c-.43.718-1.165,1.941-2.386,1.941" transform="translate(18.855 11.101)"/>
            <path id="Fill-190" class="cls-13" d="M8.708,16.509h0a.182.182,0,0,1-.176-.186c.125-3.695,4.972-6.552,8.178-6.676a.19.19,0,0,1,.19.176.184.184,0,0,1-.176.188c-3.074.117-7.714,2.825-7.831,6.325a.18.18,0,0,1-.181.173" transform="translate(12.099 11.775)"/>
            <path id="Fill-192" class="cls-13" d="M13.578,16.406a.186.186,0,0,1-.11-.037c-1.455-1.092-1.78-4.515-1.646-6.552a.181.181,0,1,1,.361.024c-.12,1.8.144,4.943,1.331,6.093.359-.764,1.524-3.043,2.735-3.446a.178.178,0,0,1,.227.112.182.182,0,0,1-.115.227c-1,.335-2.151,2.415-2.62,3.47a.181.181,0,0,1-.117.1.333.333,0,0,1-.046,0" transform="translate(16.809 11.775)"/>
            <path id="Fill-194" class="cls-13" d="M17.99,16.532a.186.186,0,0,1-.142-.066c-1.267-1.587-2.579-3.1-3.563-3.389a.184.184,0,0,1-.12-.227.182.182,0,0,1,.225-.12c.96.288,2.1,1.477,3.487,3.2a56.959,56.959,0,0,0,.8-6.186.18.18,0,0,1,.178-.181.182.182,0,0,1,.183.181,60.379,60.379,0,0,1-.85,6.508l-.024.132a.178.178,0,0,1-.129.147.333.333,0,0,1-.046,0" transform="translate(20.219 11.65)"/>
            <path id="Fill-196" class="cls-13" d="M21.527,14.932a.179.179,0,0,1-.173-.134c-.3-1.084-3.118-4.581-4.564-4.889a.486.486,0,0,0-.537.142.18.18,0,1,1-.278-.227.84.84,0,0,1,.891-.266c1.018.217,2.376,1.661,2.913,2.271A9.979,9.979,0,0,1,21.7,14.7a.177.177,0,0,1-.125.222.157.157,0,0,1-.049.007" transform="translate(22.777 11.606)"/>
            <path id="Fill-198" class="cls-13" d="M6.045,30.185a.187.187,0,0,1-.081-.02.179.179,0,0,1-.1-.142L4.89,20.871a.183.183,0,0,1,.161-.2.181.181,0,0,1,.2.161L6.2,29.711c.967-.545,4.525-2.484,5.861-2.418a28.074,28.074,0,0,1,5.634,1.822l.447-8.642a.183.183,0,0,1,.134-.164,4.243,4.243,0,0,1,3.438.505,2.566,2.566,0,0,1,.969,2.156.182.182,0,0,1-.183.178.18.18,0,0,1-.181-.178,2.205,2.205,0,0,0-.825-1.868,3.9,3.9,0,0,0-3-.476l-.457,8.762a.18.18,0,0,1-.249.156c-.044-.02-4.31-1.812-5.751-1.888-1.421-.076-5.856,2.476-5.9,2.5a.2.2,0,0,1-.09.024" transform="translate(6.852 26.933)"/>
            <path id="Fill-200" class="cls-13" d="M3.6,38.379a.2.2,0,0,1-.151-.078c-1.629-2.386-1.15-7.663-.918-10.2.2-1.8,1.8-6.007,4.024-7.3a2.565,2.565,0,0,1,2.42-.183.175.175,0,0,1,.1.234.177.177,0,0,1-.234.1,2.241,2.241,0,0,0-2.1.166c-2.164,1.26-3.678,5.5-3.846,7.028-.21,2.3-.7,7.68.86,9.956a.181.181,0,0,1-.049.252.168.168,0,0,1-.1.032" transform="translate(3.085 27.274)"/>
            <path id="Fill-202" class="cls-13" d="M7.772,25.653a3.039,3.039,0,0,0-.139,2.4c.178.664.466,1.109.755,1.165.254.049.518-.215.694-.449.293-.386.471-2.523-.168-3.2-.1-.1-.388-.41-1.14.085m.681,3.934a.628.628,0,0,1-.134-.015c-.6-.115-.9-.943-1.033-1.426-.271-1-.271-2.315.256-2.772l.017-.015c.84-.559,1.341-.33,1.614-.042.752.8.606,3.128.2,3.668a1.228,1.228,0,0,1-.916.6" transform="translate(10.05 33.94)"/>
            <path id="Fill-204" class="cls-13" d="M9.4,29.953a.869.869,0,0,1-.112-.007c-.508-.066-.83-.574-1.111-1.023-.051-.081-.1-.159-.151-.237a.178.178,0,0,1,.049-.249.183.183,0,0,1,.252.049c.051.081.105.161.156.244.252.4.51.813.855.86a1.12,1.12,0,0,0,.813-.4c.86-.8.156-2.742-.269-3.377L9.878,25.8a.934.934,0,0,0-1.111-.505c-.381.144-.53.576-.4,1.153a.18.18,0,0,1-.352.081c-.208-.9.183-1.4.62-1.573a1.278,1.278,0,0,1,1.551.662c.562.845,1.216,2.894.21,3.836a1.518,1.518,0,0,1-1,.5" transform="translate(11.284 33.743)"/>
            <path id="Fill-206" class="cls-13" d="M10.258,29.944A2.4,2.4,0,0,1,9.1,29.588a.184.184,0,0,1-.068-.247.179.179,0,0,1,.247-.068c.818.459,1.411.413,1.763-.142a3.531,3.531,0,0,0-.559-3.817c-.427-.31-.916-.134-1.453.52a.174.174,0,0,1-.252.027.172.172,0,0,1-.027-.252c.889-1.094,1.6-.838,1.944-.589,1,.725,1.372,3.177.652,4.3a1.265,1.265,0,0,1-1.094.62" transform="translate(12.367 33.632)"/>
            <path id="Fill-208" class="cls-13" d="M10.674,30.349c-1.5,0-3.306-.11-3.844-1.4a2.984,2.984,0,0,1,.217-2.557,1.038,1.038,0,0,1,.977-.422.177.177,0,0,1,.159.2.18.18,0,0,1-.2.161.684.684,0,0,0-.652.283,2.671,2.671,0,0,0-.168,2.2c.5,1.2,2.5,1.179,3.966,1.17l.444,0h.015c2.044,0,3.568-.581,3.888-1.482.217-.613-.159-1.353-1.057-2.078a.182.182,0,0,1-.029-.254.185.185,0,0,1,.256-.029c1.028.833,1.443,1.714,1.167,2.484-.376,1.062-1.993,1.722-4.222,1.722h-.051c-.129,0-.269,0-.41,0l-.457,0" transform="translate(9.385 35.304)"/>
            <path id="Fill-210" class="cls-13" d="M9.618,25.8a.181.181,0,0,1-.1-.332c1.858-1.238,4.015-1.006,6.244-.635a.181.181,0,0,1-.061.357c-2.156-.359-4.234-.584-5.983.579a.173.173,0,0,1-.1.032" transform="translate(13.412 33.24)"/>
            <path id="Fill-212" class="cls-13" d="M12.566,8.868a.119.119,0,0,1-.029,0,.179.179,0,0,1-.149-.205,1.729,1.729,0,0,1,1.5-1.6H13.9c.6.01,1.023.52,1.128,1.365a.181.181,0,0,1-.359.044c-.083-.662-.364-1.043-.774-1.048h0a1.393,1.393,0,0,0-1.15,1.3.18.18,0,0,1-.176.151" transform="translate(17.661 8.043)"/>
            <path id="Fill-214" class="cls-13" d="M16.762,8.8a.18.18,0,0,1-.178-.181A1.067,1.067,0,0,0,16,7.566c-.259-.078-.532.076-.774.437a.181.181,0,0,1-.3-.2,1.068,1.068,0,0,1,1.179-.581,1.4,1.4,0,0,1,.835,1.4.18.18,0,0,1-.181.181" transform="translate(21.285 8.226)"/>
            <path id="Fill-216" class="cls-13" d="M33.525,26.837c-2.281,0-4.8-.813-5.138-2.1a29.977,29.977,0,0,1-.725-7.387.179.179,0,1,1,.359,0,29.477,29.477,0,0,0,.718,7.3c.293,1.121,3.111,2.027,5.582,1.79,4.186-.457,4.066-3.451,3.929-6.921-.039-.921-.078-1.871-.024-2.779a.182.182,0,0,1,.19-.168.177.177,0,0,1,.168.19c-.049.889-.012,1.831.024,2.742.134,3.343.271,6.8-4.249,7.294-.274.027-.552.039-.835.039" transform="translate(39.69 21.76)"/>
            <path id="Fill-218" class="cls-13" d="M26.809,21.8a.185.185,0,0,1-.137-.059.181.181,0,0,1,.017-.256,5.155,5.155,0,0,1,3.746-1.411.179.179,0,1,1-.032.357,4.81,4.81,0,0,0-3.475,1.326.191.191,0,0,1-.12.044" transform="translate(38.199 26.794)"/>
            <path id="Fill-220" class="cls-13" d="M39.422,39.056a.183.183,0,0,1-.063-.012.18.18,0,0,1-.1-.234c1.4-3.678.508-11.7-2.532-15.812a5.529,5.529,0,0,0-4.911-2.615.186.186,0,0,1-.193-.171.179.179,0,0,1,.168-.19,5.877,5.877,0,0,1,5.226,2.762c3.1,4.2,4.01,12.393,2.576,16.156a.176.176,0,0,1-.168.117" transform="translate(45.397 26.716)"/>
            <path id="Fill-222" class="cls-13" d="M33.307,33.425a.18.18,0,0,1-.181-.181V27.064a19.832,19.832,0,0,0-.239-2.945.18.18,0,1,1,.357-.049,20.455,20.455,0,0,1,.242,3V27.1l0,6.142a.18.18,0,0,1-.181.181" transform="translate(47.222 32.347)"/>
            <path id="Fill-224" class="cls-13" d="M31.963,23.933c-.081,0-.164,0-.247-.007a3.713,3.713,0,0,1-2.3-.9A3.193,3.193,0,0,1,28.4,20.585a.179.179,0,1,1,.359,0,2.918,2.918,0,0,0,2.977,2.982,3.769,3.769,0,0,0,4.1-3.214.177.177,0,0,1,.2-.159.179.179,0,0,1,.159.2,4.088,4.088,0,0,1-4.23,3.538" transform="translate(40.756 26.983)"/>
            <path id="Fill-226" class="cls-13" d="M31,25.02c-.513,1.436.173,3.665,1.067,4.154.791.432,1.607-.408,2.149-1.184a5.22,5.22,0,0,0,.249-2.9l-.012-.015c-.3-.371-1.878-.205-2.728-.12-.283.029-.537.056-.725.066m1.519,4.635a1.3,1.3,0,0,1-.625-.164c-1.233-.674-1.751-3.346-1.184-4.718a.175.175,0,0,1,.166-.11c.176,0,.471-.032.811-.068,1.431-.147,2.647-.232,3.04.249.464.488.1,2.906-.215,3.35-.784,1.126-1.46,1.46-1.993,1.46" transform="translate(43.755 33.164)"/>
            <path id="Fill-228" class="cls-13" d="M27.842,18.387a.182.182,0,0,1-.076-.347,8.667,8.667,0,0,0,1.3-.791,4.89,4.89,0,0,1,2.745-1.15.182.182,0,0,1,.181.183c0,.4.076.652.23.747.3.188.965-.132,1.612-.44a4.779,4.779,0,0,1,1.829-.61.18.18,0,0,1,.178.166c.059.759.554.84,1.358.911a2.073,2.073,0,0,1,1.333.42.18.18,0,0,1-.256.254,1.8,1.8,0,0,0-1.109-.313c-.674-.061-1.5-.134-1.663-1.067a5.565,5.565,0,0,0-1.512.562c-.772.371-1.5.715-1.963.422a1.015,1.015,0,0,1-.393-.867,4.8,4.8,0,0,0-2.364,1.079,9.181,9.181,0,0,1-1.358.823.189.189,0,0,1-.073.017" transform="translate(39.69 20.907)"/>
            <path id="Fill-230" class="cls-13" d="M29.429,25.392a.161.161,0,0,1-.034,0c-2.159-.376-3.079-2.789-2.662-6.974a7.49,7.49,0,0,1,1.736-4.2c1.15-1.238,1.726-.823,2.459-.3a4.886,4.886,0,0,0,1.338.74,7.758,7.758,0,0,0,3.866.142,7.986,7.986,0,0,1,3.722.1A4,4,0,0,1,42,17.688a4.8,4.8,0,0,1-.379,4.1l-.015.015a3.382,3.382,0,0,1-1.7,1.048.182.182,0,1,1-.068-.357,3.05,3.05,0,0,0,1.512-.935,4.53,4.53,0,0,0,.308-3.775,3.652,3.652,0,0,0-1.917-2.554,7.565,7.565,0,0,0-3.553-.081,8.066,8.066,0,0,1-4.039-.164,5.2,5.2,0,0,1-1.421-.784c-.723-.515-1.05-.752-1.988.256a7.181,7.181,0,0,0-1.636,3.985c-.276,2.772-.09,6.161,2.364,6.588a.177.177,0,0,1,.147.208.18.18,0,0,1-.176.149" transform="translate(38.21 17.19)"/>
            <path id="Fill-232" class="cls-13" d="M28.684,18.637a.181.181,0,0,1-.178-.159,1.191,1.191,0,0,1,.479-1.157,1.56,1.56,0,0,1,1.529-.117,1.435,1.435,0,0,1,.818,1.238.18.18,0,0,1-.359.027,1.065,1.065,0,0,0-.61-.935,1.205,1.205,0,0,0-1.167.081.835.835,0,0,0-.332.821.178.178,0,0,1-.156.2l-.022,0" transform="translate(40.892 22.462)"/>
            <path id="Fill-234" class="cls-13" d="M33.136,18.6a.18.18,0,0,1-.181-.181.965.965,0,0,0-.562-.847,1.538,1.538,0,0,0-1.475.01.769.769,0,0,0-.322.786.181.181,0,1,1-.359.042,1.14,1.14,0,0,1,.479-1.126,1.888,1.888,0,0,1,1.849-.029,1.311,1.311,0,0,1,.75,1.165.18.18,0,0,1-.178.181" transform="translate(43.391 22.413)"/>
            <path id="Fill-236" class="cls-13" d="M31.424,21.03h-.032A3.479,3.479,0,0,1,28.975,19.4a.181.181,0,1,1,.317-.173,3.109,3.109,0,0,0,2.1,1.441h.032A2.065,2.065,0,0,0,33.7,19.213l.066-.129a.18.18,0,1,1,.32.166l-.063.127a2.411,2.411,0,0,1-2.593,1.653" transform="translate(41.552 25.242)"/>
            <path id="Fill-238" class="cls-13" d="M29.392,18.448a.153.153,0,0,1-.066-.015l-.063-.024a.174.174,0,0,1-.112.039.177.177,0,0,1-.176-.154l-.01,0a.183.183,0,0,1-.115-.168.663.663,0,0,1,.01-.1.181.181,0,0,1,.046-.183.2.2,0,0,0,0-.051.18.18,0,0,1,.181-.181h.44a.179.179,0,0,1,.149.281l0,.007a.182.182,0,0,1-.01.166l-.066.11c-.012.022-.024.037-.032.049a.311.311,0,0,1,0,.049.18.18,0,0,1-.078.149.2.2,0,0,1-.1.032" transform="translate(41.404 23.252)"/>
            <path id="Fill-240" class="cls-13" d="M31.255,18.4a.145.145,0,0,1-.066-.012l-.063-.027a.162.162,0,0,1-.112.039.179.179,0,0,1-.178-.154l-.01,0a.19.19,0,0,1-.112-.169.666.666,0,0,1,.007-.1.179.179,0,0,1,.046-.183.218.218,0,0,0,.007-.054.18.18,0,0,1,.181-.181h.44a.182.182,0,0,1,.149.281s0,0,0,.01a.182.182,0,0,1-.012.166l-.066.11c-.012.022-.022.034-.029.049s0,.029,0,.049a.172.172,0,0,1-.081.147.163.163,0,0,1-.1.032" transform="translate(44.089 23.18)"/>
            <path id="Fill-242" class="cls-13" d="M19.38,19.2a.182.182,0,0,1-.063-.01,6.092,6.092,0,0,1-1.458-1,.181.181,0,0,1-.012-.256.178.178,0,0,1,.254-.01,6.039,6.039,0,0,0,1.341.926.182.182,0,0,1,.107.232.184.184,0,0,1-.168.117" transform="translate(25.468 23.643)"/>
            <path id="Fill-244" class="cls-13" d="M21.276,19.081a.18.18,0,0,1-.081-.342,1.093,1.093,0,0,0,.418-.608.18.18,0,0,1,.347.1,1.456,1.456,0,0,1-.606.838.174.174,0,0,1-.078.017" transform="translate(30.221 23.821)"/>
          </g>
        </g>
      </g>
    </g>
  </g>
</svg>
