<svg xmlns="http://www.w3.org/2000/svg" width="120" height="120" viewBox="0 0 120 120">
  <defs>
    <style>
      .cls-1 {
        fill: #fff;
      }

      .cls-2 {
        fill: #fffffe;
      }

      .cls-10, .cls-2, .cls-3, .cls-4, .cls-5, .cls-6, .cls-7, .cls-8, .cls-9 {
        fill-rule: evenodd;
      }

      .cls-3 {
        fill: #83c8b5;
      }

      .cls-4 {
        fill: #595a56;
      }

      .cls-5 {
        fill: #f7e5c9;
      }

      .cls-6 {
        fill: #f1bc6a;
      }

      .cls-7 {
        fill: #7c7d7a;
      }

      .cls-8 {
        fill: #e8859a;
      }

      .cls-9 {
        fill: #b0b0ad;
      }

      .cls-10 {
        fill: #d1e8dd;
      }
    </style>
  </defs>
  <g id="product-icon" transform="translate(-296 -837)">
    <circle id="Ellipse_2" data-name="Ellipse 2" class="cls-1" cx="60" cy="60" r="60" transform="translate(296 837)"/>
    <g id="product-icon-2" data-name="product-icon" transform="translate(316.091 863.599)">
      <g id="WEBSITE-ICONS-_1_" data-name="WEBSITE-ICONS-(1)" transform="translate(0.174 0.901)">
        <g id="Group-2577" transform="translate(0 0)">
          <g id="product-icon-3" data-name="product-icon" transform="translate(0 0)">
            <path id="Fill-346" class="cls-2" d="M48.666,58.219c-8.624-.636-17.332.723-25.921-.255S5.107,52.936,1.636,45.017c-3.706-8.448.135-18.436,5.912-25.629C20.555,3.185,43.819-3.942,63.669,2.2c6.475,2,12.727,5.426,16.8,10.843,7.091,9.424,5.85,23.627-1.53,32.828S59.153,59.393,47.384,58.627" transform="translate(-0.174 -0.011)"/>
            <path id="Fill-348" class="cls-3" d="M8.893,23.4s.666,4.7,1.4,5.2,1.508,1.07,5.2.734a29.59,29.59,0,0,0,4.19.205c1.145-.13,2.13-.39,2.484-1.179a14.753,14.753,0,0,0,.878-7.812s-14.07.05-14.15,2.851" transform="translate(10.994 26.288)"/>
            <path id="Fill-350" class="cls-4" d="M10.669,24.532a19.431,19.431,0,0,1,3.024-.121c.73.125,3.257.121,3.257.121a4.987,4.987,0,0,1-.121,1.48,4.714,4.714,0,0,1-.791,1.1,16.344,16.344,0,0,1-1.638.331c-.292,0-2.258.479-2.712,0a11.654,11.654,0,0,1-1.02-2.915" transform="translate(13.269 31.196)"/>
            <path id="Fill-352" class="cls-5" d="M6.243,15.374A20.368,20.368,0,0,0,7.719,30.161c3.681,6.966,5.545,10,5.545,10l14.15.132s7.2-7.392,8.475-13.436.855-7.937-.588-11.728-2.935-6.61-8.742-9.463S6.9,12.106,6.243,15.374" transform="translate(6.623 6.541)"/>
            <path id="Fill-354" class="cls-6" d="M10.093,14.8l.839.445V13.483l-.839-.734-.511.734Z" transform="translate(11.877 16.303)"/>
            <path id="Fill-356" class="cls-6" d="M14.686,14.337l-.23-.869.664-.689.107.406.173.655-.481.438Z" transform="translate(18.119 16.342)"/>
            <path id="Fill-358" class="cls-7" d="M27.581,40.978a.289.289,0,0,1-.205-.087.283.283,0,0,1,.007-.4c3.857-3.752,8.259-9.979,9.039-16.2.709-5.661-2.367-15.272-9.789-17.85C18.374,3.577,11.447,6.22,7.627,13.7c-2.1,4.108-2.279,8.685-.559,13.993a55.129,55.129,0,0,0,5.987,11.817l.618,1.006a.284.284,0,0,1-.094.395.291.291,0,0,1-.395-.094c-.2-.324-.4-.657-.618-1.006C8.692,33.551,2.2,23.069,7.116,13.441,11.08,5.678,18.26,2.929,26.82,5.9c7.7,2.675,10.9,12.613,10.17,18.459-.8,6.368-5.28,12.718-9.208,16.538a.3.3,0,0,1-.2.08" transform="translate(6.456 6.033)"/>
            <path id="Fill-360" class="cls-7" d="M13.989,21.066c-1.818,0-3.542-.032-4.956-.132a.284.284,0,0,1-.265-.3.288.288,0,0,1,.306-.269c2.767.2,6.758.132,10.28.073,1.4-.023,2.732-.046,3.85-.048a.286.286,0,1,1,0,.572c-1.113,0-2.438.025-3.843.05-1.743.025-3.6.057-5.371.057" transform="translate(10.833 26.052)"/>
            <path id="Fill-362" class="cls-7" d="M19.843,30.059c-.511,0-1.07-.048-1.674-.1-.427-.036-.867-.073-1.343-.1a18.823,18.823,0,0,0-2.212.043c-2.206.132-4.489.269-5.269-2.532-.577-1.932-.577-3.633-.577-6.724a.286.286,0,1,1,.572,0c0,3.134,0,4.705.559,6.566.655,2.358,2.431,2.251,4.68,2.119a18.456,18.456,0,0,1,2.279-.043c.484.027.928.062,1.359.1,2.543.214,3.823.322,4.425-2.534a14.4,14.4,0,0,0,.312-4.484c-.018-.545-.034-1.108-.034-1.7a.285.285,0,1,1,.57,0c0,.582.018,1.14.036,1.679a14.959,14.959,0,0,1-.331,4.639c-.538,2.557-1.676,3.068-3.353,3.068" transform="translate(10.833 26.052)"/>
            <path id="Fill-364" class="cls-7" d="M12.74,27.854a2.035,2.035,0,0,1-1.546-.488c-.474-.486-.645-1.368-.543-2.783a.286.286,0,1,1,.57.043c-.087,1.218.039,1.984.383,2.338s.983.335,1.774.294c.13-.007.265-.011.4-.016s.278-.007.431-.007a2.747,2.747,0,0,0,2.016-.5,2.427,2.427,0,0,0,.495-1.795.286.286,0,1,1,.572-.014,2.921,2.921,0,0,1-.657,2.208,3.216,3.216,0,0,1-2.427.677c-.144,0-.281,0-.411,0s-.262.011-.39.018c-.23.011-.452.023-.668.023" transform="translate(13.209 31.121)"/>
            <path id="Fill-366" class="cls-7" d="M10.729,14.754a1.172,1.172,0,0,0,.543.187,1.184,1.184,0,0,0-.135-.577,3.179,3.179,0,0,0-.671-1.017,5.452,5.452,0,0,0,.262,1.407m2.456,16.137a.277.277,0,0,1-.214-.1,16.252,16.252,0,0,1-3.412-7.752,13.848,13.848,0,0,1,.62-8.124c-.463-1.679-.278-2.041-.007-2.183s.588.025.944.479c.3.376,1.045,1.576.588,2.107-.274.324-.757.171-1.088.018-1.781,4-.427,11.486,2.78,15.074a.285.285,0,0,1-.212.477" transform="translate(11.45 16.226)"/>
            <path id="Fill-368" class="cls-7" d="M16.006,13.242a1.71,1.71,0,0,0-.221.648,1.06,1.06,0,0,0,.016.509,1.209,1.209,0,0,0,.442-.338,2.621,2.621,0,0,0-.237-.819m-2.076,17.6a.292.292,0,0,1-.2-.082.288.288,0,0,1,0-.406c1.054-1.051,2.235-4.188,2.881-7.625.666-3.556.614-6.535-.128-8.106-.262.235-.634.468-.963.281-.445-.253-.344-1.047-.214-1.48.164-.538.422-.823.744-.8.381.025.62.47.775,1.43,1.368,2.29.7,6.9.347,8.783-.673,3.6-1.893,6.781-3.036,7.926a.292.292,0,0,1-.2.082" transform="translate(17.08 16.141)"/>
            <path id="Fill-370" class="cls-7" d="M2.942,18.905a.286.286,0,0,1-.1-.554A26.708,26.708,0,0,0,5.53,17.028a25.4,25.4,0,0,1,2.99-1.451.287.287,0,0,1,.365.176.283.283,0,0,1-.176.365A24.924,24.924,0,0,0,5.8,17.532a25.823,25.823,0,0,1-2.758,1.355.26.26,0,0,1-.1.018" transform="translate(3.006 19.906)"/>
            <path id="Fill-372" class="cls-7" d="M8.59,11.491a.27.27,0,0,1-.073-.011,34.516,34.516,0,0,1-3.49-1.1,17.636,17.636,0,0,0-2.945-.853A.287.287,0,0,1,2.2,8.961a18.082,18.082,0,0,1,3.024.876,34.123,34.123,0,0,0,3.439,1.09.287.287,0,0,1-.073.563" transform="translate(1.981 11.444)"/>
            <path id="Fill-374" class="cls-7" d="M10.488,8.3a.3.3,0,0,1-.2-.084,26.47,26.47,0,0,1-1.92-2.249A29.687,29.687,0,0,0,6.211,3.452a.287.287,0,0,1,.406-.406,30.552,30.552,0,0,1,2.2,2.559,25.752,25.752,0,0,0,1.877,2.2.288.288,0,0,1,0,.406.3.3,0,0,1-.2.084" transform="translate(7.452 3.769)"/>
            <path id="Fill-376" class="cls-7" d="M14.218,7.759a.309.309,0,0,1-.1-.018.284.284,0,0,1-.169-.367c.47-1.277.668-2,.994-3.179.16-.582.36-1.307.636-2.253a.287.287,0,0,1,.356-.2.29.29,0,0,1,.194.358c-.276.942-.465,1.633-.634,2.242-.319,1.161-.531,1.925-1.01,3.227a.282.282,0,0,1-.269.187" transform="translate(17.449 2.195)"/>
            <path id="Fill-378" class="cls-7" d="M19.136,10.092a.287.287,0,0,1-.146-.531c2.7-1.619,4.838-2.828,6.357-3.588a.289.289,0,0,1,.383.13.286.286,0,0,1-.128.383c-1.505.753-3.631,1.95-6.32,3.565a.277.277,0,0,1-.146.041" transform="translate(23.746 7.587)"/>
            <path id="Fill-380" class="cls-7" d="M21.553,12.713a12.178,12.178,0,0,1-1.311-.059.286.286,0,1,1,.062-.568,23.883,23.883,0,0,0,3.122.007,27.519,27.519,0,0,1,3.392,0,.286.286,0,1,1-.052.57,27.684,27.684,0,0,0-3.316,0c-.664.023-1.3.048-1.9.048" transform="translate(25.202 15.396)"/>
            <path id="Fill-382" class="cls-7" d="M25.26,19.281a.283.283,0,0,1-.146-.041c-.689-.413-2.919-1.309-4.548-1.961-.557-.226-1.045-.42-1.375-.559a.286.286,0,1,1,.224-.527c.328.137.812.331,1.366.554,1.647.661,3.9,1.565,4.625,2a.282.282,0,0,1,.1.392.277.277,0,0,1-.244.139" transform="translate(23.958 20.685)"/>
            <path id="Fill-384" class="cls-8" d="M13.194,13.118l24.913-.078.078-3.517S12.4,8.568,13.194,13.118" transform="translate(16.48 12.064)"/>
            <path id="Fill-386" class="cls-9" d="M24.184,9.476l-.078,3.517s4.085-1.343,3.743-1.485-3.665-2.032-3.665-2.032" transform="translate(30.48 12.111)"/>
            <path id="Fill-388" class="cls-10" d="M27.665,16.526V47.258h6.5s.23-33.485.139-36.032l-.139-1.749s-6.5,2.187-6.5,7.05" transform="translate(35.038 12.111)"/>
            <path id="Fill-390" class="cls-9" d="M14.8,15.647S26.373,29.2,28.959,31.941,40.028,43.25,40.028,43.25l.1-30.634S11.445,11.733,14.8,15.647" transform="translate(18.208 16.023)"/>
            <path id="Fill-392" class="cls-2" d="M18.537,14.752l11.86.413s.03,4.767,0,6.883-.137,6.576-.137,6.576-5.244-5.887-5.953-6.936-5.77-6.936-5.77-6.936" transform="translate(23.347 18.868)"/>
            <path id="Fill-394" class="cls-7" d="M32.12,9.369a.286.286,0,0,1-.285-.281c-.009-.358-.1-.988-.205-1.651a12.473,12.473,0,0,1-.249-3.321.287.287,0,0,1,.335-.224.282.282,0,0,1,.226.335A12.708,12.708,0,0,0,32.2,7.35a16.776,16.776,0,0,1,.21,1.724.287.287,0,0,1-.278.294Z" transform="translate(39.735 4.953)"/>
            <path id="Fill-396" class="cls-7" d="M33.308,9.4a.268.268,0,0,1-.137-.036.285.285,0,0,1-.114-.388,26.335,26.335,0,0,1,3.068-4,.287.287,0,0,1,.433.376,25.6,25.6,0,0,0-3,3.9.284.284,0,0,1-.251.148" transform="translate(41.899 6.222)"/>
            <path id="Fill-398" class="cls-7" d="M35,8.832c-.271,0-.545-.009-.819-.023a.287.287,0,1,1,.027-.572A13.718,13.718,0,0,0,38.6,7.783a.286.286,0,0,1,.155.55,14.026,14.026,0,0,1-3.754.5" transform="translate(43.03 9.929)"/>
            <path id="Fill-400" class="cls-7" d="M32.634,8.965a.3.3,0,0,1-.2-.078A14.374,14.374,0,0,0,28.7,6.022a.287.287,0,0,1,.21-.534,14.607,14.607,0,0,1,3.921,2.983.281.281,0,0,1,.009.4.287.287,0,0,1-.208.089" transform="translate(36.134 6.979)"/>
            <path id="Fill-402" class="cls-7" d="M37.442,13.214a.283.283,0,0,1-.162-.05,14.976,14.976,0,0,1-1.733-1.432,9.771,9.771,0,0,0-1.918-1.485.287.287,0,0,1,.283-.5,10.4,10.4,0,0,1,2.023,1.562,14.611,14.611,0,0,0,1.67,1.382.286.286,0,0,1-.162.522" transform="translate(42.492 12.413)"/>
            <path id="Fill-404" class="cls-7" d="M13.344,9.948a.286.286,0,0,1,0-.572c13.418,0,21.825-.009,24.991-.025a.286.286,0,1,1,0,.572c-3.166.016-11.573.025-24.993.025" transform="translate(16.33 11.951)"/>
            <path id="Fill-406" class="cls-7" d="M41.707,13.043H28.1c-2.9-.08-7.157-.048-10.578-.023-1.476.011-2.869.023-3.946.023a.286.286,0,1,1,0-.572c1.074,0,2.466-.011,3.941-.023,3.426-.025,7.691-.057,10.592.023h13.6a.286.286,0,1,1,0,.572" transform="translate(16.624 15.881)"/>
            <path id="Fill-408" class="cls-7" d="M25.908,43.746h0a.289.289,0,0,1-.281-.292c.066-3.341.036-15.959.014-24.307-.009-2.865-.014-5.2-.014-6.42a.286.286,0,0,1,.572,0c0,1.225.007,3.556.014,6.418.023,8.352.052,20.974-.014,24.32a.289.289,0,0,1-.287.281" transform="translate(32.422 15.909)"/>
            <path id="Fill-410" class="cls-7" d="M41.611,43.65a.29.29,0,0,1-.182-.066C39.081,41.647,27.208,29.016,24.56,25.939c-1.079-1.254-2.267-2.689-3.522-4.208-2.662-3.218-5.412-6.544-7.666-8.8a.286.286,0,0,1,.406-.4c2.274,2.276,5.034,5.611,7.7,8.838,1.254,1.519,2.438,2.951,3.515,4.2,2.573,2.992,14.536,15.713,16.8,17.576a.287.287,0,0,1-.182.509" transform="translate(16.624 15.91)"/>
            <path id="Fill-412" class="cls-7" d="M30.76,29.23a.29.29,0,0,1-.212-.091c-1.38-1.492-3.211-3.668-5.15-5.971-2.525-3-5.136-6.1-7.061-8.063a.288.288,0,0,1,0-.406.283.283,0,0,1,.4,0c1.943,1.977,4.559,5.086,7.093,8.1,1.932,2.3,3.759,4.466,5.134,5.948a.286.286,0,0,1-.21.481" transform="translate(22.984 18.696)"/>
            <path id="Fill-414" class="cls-7" d="M30.758,29.23a.287.287,0,0,1-.285-.278c-.05-1.779-.014-3.816.027-5.969.048-2.577.1-5.239-.011-7.495-3.962-.139-9.151-.3-11.949-.3a.286.286,0,0,1,0-.572c2.867,0,8.234.167,12.23.308a.286.286,0,0,1,.276.271c.13,2.331.078,5.109.027,7.8-.041,2.149-.078,4.178-.027,5.944a.287.287,0,0,1-.278.294h-.009" transform="translate(22.985 18.696)"/>
            <path id="Fill-416" class="cls-7" d="M27.826,45.565h0a.287.287,0,0,1-.285-.287c0-.659.009-1.136.014-1.583.009-.515.014-1,.011-1.686-.021-4.781-.021-9.116-.021-14.132V9.649a.286.286,0,1,1,.572,0V27.878c0,5.016,0,9.349.021,14.13,0,.687,0,1.177-.011,1.7,0,.445-.011.919-.014,1.574a.287.287,0,0,1-.285.287" transform="translate(34.877 11.965)"/>
            <path id="Fill-418" class="cls-7" d="M27.829,47.7a.289.289,0,0,1-.2-.087.277.277,0,0,1-.082-.205c0-.014.021-1.46,0-2.11a.285.285,0,0,1,.287-.3h2.409a.286.286,0,1,1,0,.572H28.121c.009.5,0,1.172,0,1.553h5.928c.052-3.25.515-33.325.036-37.207-.885,0-1.962,0-3.036.009-1.163.007-2.32.014-3.218.014a.284.284,0,0,1-.285-.285.287.287,0,0,1,.285-.287c.9,0,2.053-.007,3.214-.014,1.177,0,2.358-.011,3.287-.011a.29.29,0,0,1,.281.23c.575,2.876.027,36.415,0,37.841a.288.288,0,0,1-.285.283Z" transform="translate(34.876 11.95)"/>
            <path id="Fill-420" class="cls-7" d="M30.227,24.513h-2.4a.286.286,0,0,1,0-.572h2.4a.286.286,0,1,1,0,.572" transform="translate(34.884 30.638)"/>
            <path id="Fill-422" class="cls-7" d="M28.869,23.547c-.29,0-.63-.007-1.058-.03a.29.29,0,0,1-.271-.3.285.285,0,0,1,.3-.269,17.981,17.981,0,0,0,1.8.014c.2-.009.39-.014.591-.014a.286.286,0,1,1,0,.572c-.194,0-.376.007-.57.011-.237.009-.486.018-.8.018" transform="translate(34.876 29.361)"/>
            <path id="Fill-424" class="cls-7" d="M30.253,22.608H27.836a.286.286,0,0,1,0-.572h2.418a.286.286,0,1,1,0,.572" transform="translate(34.891 28.198)"/>
            <path id="Fill-426" class="cls-7" d="M30.227,21.65h-2.4a.286.286,0,0,1,0-.572h2.4a.286.286,0,1,1,0,.572" transform="translate(34.884 26.971)"/>
            <path id="Fill-428" class="cls-7" d="M30.187,20.62H27.827a.286.286,0,1,1,0-.572h2.361a.286.286,0,1,1,0,.572" transform="translate(34.877 25.651)"/>
            <path id="Fill-430" class="cls-7" d="M30.187,19.577c-.515,0-2.064-.048-2.37-.055a.291.291,0,0,1-.278-.3.285.285,0,0,1,.3-.278c.185.007,1.834.057,2.352.057a.286.286,0,1,1,0,.572" transform="translate(34.877 24.242)"/>
            <path id="Fill-432" class="cls-7" d="M30.219,18.3c-.406,0-.963-.03-1.453-.055-.379-.021-.734-.039-.931-.039a.286.286,0,0,1,0-.572c.212,0,.559.018.96.039.486.025,1.033.055,1.423.055a.286.286,0,1,1,0,.572" transform="translate(34.891 22.559)"/>
            <path id="Fill-434" class="cls-7" d="M28.668,17.015c-.258,0-.531,0-.848-.011a.286.286,0,0,1,.007-.572h.007c.609.016,1.04.011,1.54,0,.262,0,.538,0,.862,0a.286.286,0,0,1,0,.572c-.322,0-.6,0-.855,0-.237,0-.468.007-.712.007" transform="translate(34.877 21.019)"/>
            <path id="Fill-436" class="cls-7" d="M30.235,15.918H27.826a.286.286,0,1,1,0-.572h2.409a.286.286,0,1,1,0,.572" transform="translate(34.876 19.628)"/>
            <path id="Fill-438" class="cls-7" d="M27.826,14.86a.286.286,0,0,1-.048-.568,8.253,8.253,0,0,1,1.638-.03c.274.014.554.025.819.025a.286.286,0,1,1,0,.572c-.274,0-.563-.014-.844-.025a8.06,8.06,0,0,0-1.517.023.337.337,0,0,1-.048,0" transform="translate(34.877 18.209)"/>
            <path id="Fill-440" class="cls-7" d="M30.219,13.614c-.292,0-.753-.014-1.2-.03s-.9-.025-1.184-.025a.287.287,0,0,1-.285-.287.284.284,0,0,1,.285-.285c.292,0,.755.011,1.2.025s.9.03,1.184.03a.286.286,0,1,1,0,.572" transform="translate(34.891 16.607)"/>
            <path id="Fill-442" class="cls-7" d="M30.227,12.453h-2.4a.286.286,0,0,1,0-.572h2.4a.286.286,0,1,1,0,.572" transform="translate(34.884 15.191)"/>
            <path id="Fill-444" class="cls-7" d="M30.235,11.217H27.826a.286.286,0,1,1,0-.572h2.409a.286.286,0,1,1,0,.572" transform="translate(34.876 13.607)"/>
            <path id="Fill-446" class="cls-7" d="M13.344,13.518a.287.287,0,0,1-.285-.287V9.662a.286.286,0,0,1,.572,0v3.284c5.319,0,22-.068,24.352-.078.009-.249.027-.718.066-1.606.011-.253,0-.924,0-1.321,0-.139,0-.249,0-.306a.286.286,0,0,1,.572,0c0,.057,0,.164,0,.3,0,.429.009,1.081,0,1.348-.073,1.74-.078,1.87-.078,1.877a.292.292,0,0,1-.287.278c-.194,0-19.588.078-24.913.078" transform="translate(16.33 11.951)"/>
            <path id="Fill-448" class="cls-7" d="M24.267,13.453a.287.287,0,0,1-.1-.557c.312-.114.609-.214.905-.317a20.283,20.283,0,0,0,2.276-.887c-.395-.219-.88-.534-1.387-.858a11.531,11.531,0,0,0-1.54-.912.286.286,0,0,1-.283-.477c.276-.274.7-.018,2.135.908A11.457,11.457,0,0,0,28.09,11.4a.283.283,0,0,1,.208.246.29.29,0,0,1-.153.283,18.479,18.479,0,0,1-2.885,1.188c-.292.1-.586.2-.894.312a.3.3,0,0,1-.1.018" transform="translate(30.319 11.939)"/>
          </g>
        </g>
      </g>
    </g>
  </g>
</svg>
